<?xml version="1.0" encoding="utf-8"?>
<!-- Generator: Adobe Illustrator 21.0.0, SVG Export Plug-In . SVG Version: 6.00 Build 0)  -->
<svg version="1.1" id="Layer_1" xmlns="http://www.w3.org/2000/svg" xmlns:xlink="http://www.w3.org/1999/xlink" x="0px" y="0px"
	 viewBox="0 0 64 64" style="enable-background:new 0 0 64 64;" xml:space="preserve">
<style type="text/css">
	.st0{fill:#2C46FF;}
	.st1{fill:#FF00FF;}
	.st2{fill:#0016B2;}
</style>
<g>
	<g>
		<polygon class="st0" points="37.2,10 31.4,24.5 36.3,36.6 33.4,43.7 46.9,10 		"/>
		<polygon class="st0" points="17.8,12.9 16.6,10 6.9,10 23.2,50.4 30.7,50.4 31.4,48.7 17.1,12.9 		"/>
		<path class="st0" d="M31.4,24.5l-4.5,11.3L31.4,24.5z"/>
		<polygon class="st0" points="17.8,12.9 17.8,12.9 26.9,35.8 		"/>
		<path class="st0" d="M31.4,48.7l2-4.9L31.4,48.7z"/>
	</g>
	<polygon class="st1" points="36.3,36.6 31.4,24.5 26.9,35.8 17.8,12.9 17.1,12.9 31.4,48.7 	"/>
	<g>
		<polygon class="st2" points="17.8,12.9 26.9,35.8 31.4,24.5 26.8,12.9 		"/>
		<polygon class="st2" points="31.4,48.7 31.4,48.6 17.1,12.9 		"/>
		<polygon class="st2" points="31.4,24.5 31.4,24.5 36.3,36.8 36.3,36.6 		"/>
		<polygon class="st2" points="51.8,12.9 47.4,12.9 37.1,38.7 36.3,36.8 31.4,48.6 33.3,53.3 40.8,53.3 51.8,26.2 57.1,12.9 		"/>
	</g>
</g>
</svg>
