<?xml version="1.0" encoding="utf-8"?>
<!-- Generator: Adobe Illustrator 21.0.0, SVG Export Plug-In . SVG Version: 6.00 Build 0)  -->
<svg version="1.1" id="Layer_1" xmlns="http://www.w3.org/2000/svg" xmlns:xlink="http://www.w3.org/1999/xlink" x="0px" y="0px"
	 viewBox="0 0 465 81" style="enable-background:new 0 0 465 81;" xml:space="preserve">
<style type="text/css">
	.st0{fill:#2C46FF;}
	.st1{fill:#0016B2;}
	.st2{fill:#FF00FF;}
</style>
<g>
	<g>
		<polygon class="st0" points="46.1,25.7 42.1,35.7 45.5,44.1 43.5,49 52.8,25.7 		"/>
		<polygon class="st0" points="32.7,27.7 31.9,25.7 25.2,25.7 36.4,53.6 41.6,53.6 42.1,52.4 32.2,27.7 		"/>
		<polygon class="st0" points="56.2,27.7 59.8,27.7 56.2,36.9 56.2,53.6 62.4,53.6 62.4,25.7 56.2,25.7 		"/>
		<path class="st0" d="M77.7,48.4c-0.3,0-0.5,0-0.8-0.1C77.2,48.4,77.4,48.4,77.7,48.4z"/>
		<path class="st0" d="M76.5,48.3c-0.1,0-0.2,0-0.3-0.1C76.3,48.3,76.4,48.3,76.5,48.3z"/>
		<path class="st0" d="M77.5,30.6c-0.3,0-0.6,0-0.9,0C76.9,30.5,77.2,30.6,77.5,30.6z"/>
		<path class="st0" d="M83.1,32.6c0.3,0.2,0.7,0.5,1,0.7l0.5-0.7c-0.3,0-0.7,0-1,0C83.4,32.5,83.3,32.6,83.1,32.6z"/>
		<path class="st0" d="M76.6,30.5c-0.3,0-0.5,0-0.7,0C76.1,30.6,76.4,30.5,76.6,30.5z"/>
		<path class="st0" d="M78.3,48.4c-0.2,0-0.4,0-0.6,0C77.9,48.4,78.1,48.4,78.3,48.4z"/>
		<path class="st0" d="M85.7,50.9c-0.2,0.2-0.5,0.5-0.7,0.7C85.2,51.4,85.5,51.2,85.7,50.9z"/>
		<path class="st0" d="M86.3,50.2c-0.2,0.2-0.4,0.5-0.6,0.7C85.9,50.7,86.1,50.4,86.3,50.2z"/>
		<path class="st0" d="M78.4,30.7c-0.2,0-0.4-0.1-0.6-0.1C78,30.6,78.2,30.7,78.4,30.7z"/>
		<path class="st0" d="M87.8,46.1c-0.1-0.1-0.3-0.3-0.4-0.4c-0.7-0.5-2.1-1-4.1-1.5c-3.2-0.8-5.6-1.8-7.1-3
			c-1.5-1.2-2.3-3.2-2.3-5.8c0-0.2,0-0.4,0-0.6c-0.4-0.4-0.6-0.9-0.6-1.5c0-0.8,0.3-1.5,0.9-2c0.3-0.3,0.7-0.4,1.1-0.6c0,0,0,0,0,0
			c0.4-0.6,0.9-1.1,1.5-1.5c1.9-1.4,4.3-2.2,7.1-2.2c0.4,0,0.7,0,1.1,0c0.4,0.2,0.8,0.5,1.2,0.7c-1.1-0.8-2.3-1.4-3.7-1.8
			c-1.9-0.6-3.7-1-5.6-1c-2.8,0-5.2,0.7-7.1,2.2c-0.4,0.3-0.7,0.6-1,0.9c0.1-0.2,0.3-0.3,0.4-0.4h0.3v11.7c1.5,1.1,3.8,2.1,6.8,2.8
			c2,0.5,3.4,1,4.1,1.5c0.7,0.5,1,1.2,1,2c0,0.8-0.3,1.5-1,2c-0.4,0.3-1,0.5-1.6,0.6h0c2.1,1.4,4.1,2.1,5.9,2.1
			c0.6,0,1.1-0.1,1.6-0.2c1-1.3,1.5-2.9,1.5-4.7C87.8,45.7,87.8,45.9,87.8,46.1z"/>
		<path class="st0" d="M67.3,30.4c0,0.1-0.1,0.3-0.1,0.4C67.2,30.6,67.3,30.5,67.3,30.4z"/>
		<path class="st0" d="M68.6,28.3c-0.1,0.1-0.2,0.3-0.3,0.4C68.3,28.6,68.4,28.4,68.6,28.3z"/>
		<path class="st0" d="M66.9,32.1c0,0.1,0,0.2,0,0.3C66.9,32.3,66.9,32.2,66.9,32.1z"/>
		<path class="st0" d="M67.1,31.2c0,0.1-0.1,0.3-0.1,0.4C67,31.5,67.1,31.3,67.1,31.2z"/>
		<path class="st0" d="M67.3,50.4c-0.2-0.1-0.3-0.3-0.5-0.4C66.9,50.1,67.1,50.2,67.3,50.4z"/>
		<path class="st0" d="M68.1,28.9c-0.1,0.1-0.2,0.3-0.3,0.4C67.9,29.2,68,29.1,68.1,28.9z"/>
		<path class="st0" d="M67.7,29.6c-0.1,0.1-0.1,0.3-0.2,0.4C67.5,29.9,67.6,29.8,67.7,29.6z"/>
		<path class="st0" d="M81.7,31.8c-0.1,0-0.1-0.1-0.2-0.1C81.5,31.7,81.6,31.7,81.7,31.8z"/>
		<path class="st0" d="M86.1,27.9c0.4,0.3,0.8,0.6,1.1,0.9C86.9,28.4,86.5,28.2,86.1,27.9z"/>
		<path class="st0" d="M80.1,31.1c-0.1,0-0.3-0.1-0.4-0.1C79.8,31,80,31.1,80.1,31.1z"/>
		<path class="st0" d="M79.3,30.9c-0.2,0-0.3-0.1-0.5-0.1C79,30.8,79.1,30.8,79.3,30.9z"/>
		<path class="st0" d="M69.4,51.7c-0.5-0.3-1-0.6-1.5-1c3,2.1,6.2,3.2,9.7,3.2c-0.3,0-0.7,0-1,0c-1.4-0.7-2.7-1.7-3.9-2.9l2.5-3
			c0,0,0,0,0,0c-1.8-0.6-3.7-1.7-5.7-3.5V51.7z"/>
		<path class="st0" d="M81,31.5c-0.1,0-0.2-0.1-0.4-0.1C80.7,31.4,80.8,31.4,81,31.5z"/>
		<path class="st0" d="M103.8,48.3C103.8,48.3,103.7,48.3,103.8,48.3C103.7,48.3,103.8,48.3,103.8,48.3z"/>
		<path class="st0" d="M104.4,48.2C104.4,48.2,104.4,48.2,104.4,48.2C104.4,48.2,104.4,48.2,104.4,48.2z"/>
		<path class="st0" d="M98.2,45.4c0.2,0.4,0.4,0.7,0.7,1c-1-1.3-1.6-3.1-1.6-5.3V25.7h-6.2v3c1.2,0.6,2.2,1.2,3.2,2l-3.2,4.5
			c0,0,0,0,0,0v5.4c0.5,0.3,1.1,0.7,1.5,1.1c1.5,1.3,2.2,3.2,2.2,5.7c0,1.1-0.2,2-0.5,2.9c-0.8-0.8-1.4-1.7-1.9-2.8
			c0.5,1.1,1.2,2.1,2.1,3c2.2,2.2,5.1,3.3,8.6,3.3c-0.6-0.4-1.1-0.8-1.6-1.3C99.6,50.8,98.5,48.4,98.2,45.4z"/>
		<path class="st0" d="M108.8,41.1c0,2.2-0.5,4-1.5,5.3c-0.5,0.6-1.1,1.1-1.7,1.4l0,0c0.1,0.2,0.2,0.4,0.4,0.6
			c1,1.3,2.4,1.9,4.2,1.9c0.8,0,1.6-0.2,2.2-0.4c1.8-2.1,2.7-5,2.7-8.6V25.7h-6.2V41.1z"/>
		<path class="st0" d="M91.2,43.5c0-0.2-0.1-0.5-0.1-0.7C91.2,43,91.2,43.2,91.2,43.5z"/>
		<path class="st0" d="M92.3,47.6c-0.2-0.3-0.3-0.7-0.4-1.1C92,46.9,92.2,47.2,92.3,47.6z"/>
		<path class="st0" d="M91.9,46.4c-0.1-0.3-0.2-0.7-0.3-1.1C91.6,45.7,91.7,46.1,91.9,46.4z"/>
		<path class="st0" d="M91.5,45.1c-0.1-0.3-0.1-0.6-0.2-1C91.4,44.4,91.4,44.8,91.5,45.1z"/>
		<polygon class="st0" points="137.6,36 134.1,44.1 141.1,44.1 		"/>
		<polygon class="st0" points="137.3,49.6 136.4,47.6 139,53.6 145.1,53.6 143.4,49.6 		"/>
		<path class="st0" d="M127.6,25.7l-12,27.9l6.5-15v4.7c0,4-1.1,7.1-3.4,9.3c-0.4,0.4-0.8,0.7-1.2,1h4.7l2.6-6h1.3l2.4-5.5h-1.3
			l3.5-8.1l3.5,8.1l-2.8-6.6l3.3-7.6l-0.9-2.1H127.6z"/>
		<rect x="161.3" y="48.1" class="st0" width="4.9" height="2"/>
		<polygon class="st0" points="154.3,48.1 154.3,25.7 148.1,25.7 148.1,45 151.8,53.6 155.1,53.6 155.1,48.1 		"/>
		<path class="st0" d="M193.4,39.3C193.3,39.3,193.3,39.3,193.4,39.3C193.3,39.3,193.3,39.3,193.4,39.3z"/>
		<path class="st0" d="M200.4,42.6c-0.2,0.2-0.5,0.3-0.7,0.5C200,43,200.2,42.8,200.4,42.6z"/>
		<path class="st0" d="M196.3,31.9c0.2,0.1,0.4,0.3,0.5,0.5C196.7,32.2,196.5,32,196.3,31.9z"/>
		<path class="st0" d="M187.5,39.3v-8.3h0.8v-3.3h10.6c0.7,0,1.4,0,2.1,0.1c0.1,0,0.1,0.1,0.2,0.1c-1.8-1.5-4.9-2.2-9.3-2.2h-10.6
			v27.9h6.2v-8.9h0.8v-5.4H187.5z"/>
		<path class="st0" d="M201.5,41.8c-0.2,0.2-0.5,0.5-0.8,0.7C201,42.3,201.2,42,201.5,41.8z"/>
		<path class="st0" d="M203.3,33.9c-0.8-0.6-2.2-0.8-4.2-0.8h-1.9c0,0,0,0,0,0c0.2,0.5,0.3,1.2,0.3,1.9c0,1.5-0.4,2.6-1.2,3.3
			c-0.4,0.4-1.1,0.7-1.9,0.8v2.2h4.5c1.3,0,2.4-0.1,3.2-0.4c1.1-1.5,1.6-3.5,1.6-5.9c0-0.6,0-1.1-0.1-1.6c0,0.3,0.1,0.7,0.1,1.1
			C203.7,34.2,203.5,34,203.3,33.9z"/>
		<polygon class="st0" points="194.5,46.7 194.5,48.6 191.8,44.7 198,53.6 203.6,53.6 198.8,46.7 		"/>
		<path class="st0" d="M203.6,32.4c0.1,0.3,0.1,0.6,0.1,1C203.7,33,203.7,32.7,203.6,32.4z"/>
		<path class="st0" d="M202.3,29.1c0.1,0.2,0.2,0.3,0.3,0.5C202.5,29.4,202.4,29.3,202.3,29.1z"/>
		<path class="st0" d="M202.7,29.8c0.1,0.2,0.2,0.4,0.3,0.6C202.9,30.2,202.8,30,202.7,29.8z"/>
		<path class="st0" d="M201.7,28.5c0.1,0.1,0.2,0.2,0.3,0.3C201.9,28.7,201.8,28.6,201.7,28.5z"/>
		<path class="st0" d="M202.2,40.9c-0.2,0.3-0.5,0.6-0.7,0.8C201.8,41.5,202,41.2,202.2,40.9z"/>
		<path class="st0" d="M203.1,30.6c0.1,0.2,0.2,0.5,0.3,0.7C203.3,31.1,203.2,30.8,203.1,30.6z"/>
		<path class="st0" d="M203.4,31.4c0.1,0.3,0.2,0.6,0.2,0.9C203.5,32,203.5,31.7,203.4,31.4z"/>
		<rect x="222.7" y="37" class="st0" width="5.5" height="2"/>
		<rect x="222.7" y="48.1" class="st0" width="7.3" height="2"/>
		<path class="st0" d="M215.7,48.1v-5.8h0.8V37h-0.8v-5.7h0.8v-3.5h13.1v-2h-20.1v5.7c0.9,1.4,1.4,3.3,1.4,5.6
			c0,2.3-0.5,4.2-1.4,5.6v8.5l1.8,2.5h5.2v-5.5H215.7z"/>
		<path class="st0" d="M244.9,31.1c0.1,0,0.1,0,0.2,0C245,31.1,245,31.1,244.9,31.1z"/>
		<path class="st0" d="M240.2,44.7c0,0,0.1,0.1,0.1,0.1C240.2,44.8,240.2,44.8,240.2,44.7z"/>
		<path class="st0" d="M245.9,30.9c0.1,0,0.2,0,0.2,0C246.1,30.9,246,30.9,245.9,30.9z"/>
		<path class="st0" d="M252.1,32.2c-0.2-0.1-0.3-0.2-0.5-0.3C251.7,32,251.9,32.1,252.1,32.2z"/>
		<path class="st0" d="M253.1,32.9c-0.2-0.2-0.5-0.3-0.7-0.5c0.5,0.4,1.1,0.8,1.7,1.3l0.6-0.9c-0.2,0-0.3,0-0.5,0
			C253.8,32.8,253.4,32.9,253.1,32.9z"/>
		<path class="st0" d="M247.9,48.2c-0.4,0-0.8,0.1-1.3,0.1C247.1,48.3,247.5,48.3,247.9,48.2z"/>
		<path class="st0" d="M252.1,47.1c-1,0.6-2.3,1-3.7,1.1c0,0,0,0,0,0c1.5,1.4,3.3,2.1,5.3,2.1c1.7,0,3.2-0.3,4.4-0.8
			c-1,1.1-2.2,2-3.5,2.7c1.4-0.7,2.7-1.7,3.7-2.9v-9.9h-6.3V47.1z"/>
		<path class="st0" d="M256,28c0.4,0.3,0.9,0.7,1.3,1C256.9,28.7,256.4,28.3,256,28z"/>
		<path class="st0" d="M239.5,43.4L239.5,43.4c-0.4-1.1-0.7-2.4-0.7-3.8c0-2.6,0.8-4.8,2.4-6.4c0.5-0.5,1.1-1,1.8-1.3h0
			c0.2-0.2,0.4-0.4,0.6-0.7c2.8-2.8,6.2-4.1,10.3-4.1c0.3,0,0.5,0,0.8,0c-2.3-1.3-4.9-2-7.8-2c-4,0-7.4,1.4-10.3,4.1c0,0,0,0,0,0v4
			h-2.8c0.2-0.4,0.4-0.7,0.6-1.1c-1.3,2.2-1.9,4.6-1.9,7.4c0-0.2,0-0.4,0-0.6h2.8v5.3h-2.1c0.7,2.1,1.8,3.9,3.5,5.5
			c0.1,0.1,0.2,0.2,0.3,0.2h0.2v0.2c2.5,2.3,5.6,3.5,9.2,3.6c-0.9-0.6-1.8-1.2-2.7-2C241.2,49.5,239.8,46.7,239.5,43.4z"/>
		<path class="st0" d="M240.6,45.3c0.2,0.2,0.3,0.4,0.5,0.6C240.9,45.7,240.8,45.5,240.6,45.3z"/>
		<path class="st0" d="M251.3,31.8c-0.2-0.1-0.5-0.2-0.7-0.3C250.8,31.5,251.1,31.6,251.3,31.8z"/>
		<path class="st0" d="M233.1,44.3c-0.1-0.3-0.2-0.7-0.3-1C232.9,43.7,233,44,233.1,44.3z"/>
		<path class="st0" d="M249.5,53.7c-0.3,0-0.6,0.1-0.9,0.1C248.9,53.8,249.2,53.8,249.5,53.7z"/>
		<path class="st0" d="M251.5,53.4c-0.4,0.1-0.8,0.2-1.2,0.3C250.7,53.6,251.1,53.5,251.5,53.4z"/>
		<path class="st0" d="M254.6,52.2c-0.4,0.2-0.9,0.4-1.4,0.6C253.7,52.6,254.1,52.4,254.6,52.2z"/>
		<path class="st0" d="M254.6,27.1c0.4,0.3,0.9,0.5,1.3,0.8C255.5,27.7,255.1,27.4,254.6,27.1z"/>
		<path class="st0" d="M253.1,52.8c-0.4,0.2-0.9,0.3-1.3,0.4C252.2,53.2,252.7,53,253.1,52.8z"/>
		<path class="st0" d="M232.7,43.1c-0.1-0.3-0.1-0.6-0.2-0.9C232.6,42.5,232.7,42.8,232.7,43.1z"/>
		<path class="st0" d="M234.3,32.2c0.2-0.3,0.4-0.7,0.6-1C234.7,31.5,234.5,31.8,234.3,32.2z"/>
		<path class="st0" d="M232.5,41.6c0-0.2-0.1-0.5-0.1-0.7C232.4,41.2,232.5,41.4,232.5,41.6z"/>
		<path class="st0" d="M235.1,31c0.2-0.3,0.4-0.6,0.6-0.8C235.5,30.5,235.3,30.7,235.1,31z"/>
		<path class="st0" d="M274.4,39.3C274.4,39.3,274.4,39.3,274.4,39.3C274.4,39.3,274.4,39.3,274.4,39.3z"/>
		<path class="st0" d="M277.3,31.9c0.2,0.1,0.4,0.3,0.5,0.5C277.7,32.2,277.5,32,277.3,31.9z"/>
		<path class="st0" d="M281.5,42.6c-0.2,0.2-0.5,0.3-0.7,0.5C281,43,281.2,42.8,281.5,42.6z"/>
		<path class="st0" d="M268.5,39.3v-8.3h0.8v-3.3h10.6c0.7,0,1.4,0,2.1,0.1c0.1,0,0.1,0.1,0.2,0.1c-1.8-1.5-4.9-2.2-9.3-2.2h-10.6
			v3.8c0.7,0.4,1.4,0.9,2,1.5l-2,2.9v7.5h3.1v9.9c-0.8,0.9-1.7,1.7-2.7,2.3h5.9v-8.9h0.8v-5.4H268.5z"/>
		<path class="st0" d="M282.5,41.8c-0.2,0.3-0.5,0.5-0.8,0.7C282,42.3,282.3,42,282.5,41.8z"/>
		<polygon class="st0" points="275.5,46.7 275.5,48.6 279,53.6 284.6,53.6 279.8,46.7 		"/>
		<path class="st0" d="M284.3,33.9c-0.8-0.6-2.2-0.8-4.2-0.8h-1.9c0,0,0,0,0,0c0.2,0.5,0.3,1.2,0.3,1.9c0,1.5-0.4,2.6-1.2,3.3
			c-0.4,0.4-1.1,0.7-1.9,0.8l0,0v2.2h4.5c1.3,0,2.4-0.1,3.2-0.4c-0.2,0.3-0.5,0.6-0.7,0.8c1.6-1.6,2.4-3.8,2.4-6.8
			c0-0.6,0-1.1-0.1-1.6c0,0.3,0.1,0.7,0.1,1.1C284.7,34.2,284.5,34,284.3,33.9z"/>
		<path class="st0" d="M284.6,32.4c0.1,0.3,0.1,0.6,0.1,1C284.8,33,284.7,32.7,284.6,32.4z"/>
		<path class="st0" d="M283.3,29.1c0.1,0.1,0.2,0.3,0.3,0.5C283.5,29.4,283.4,29.3,283.3,29.1z"/>
		<path class="st0" d="M282.7,28.5c0.1,0.1,0.2,0.2,0.3,0.3C282.9,28.7,282.8,28.6,282.7,28.5z"/>
		<path class="st0" d="M283.7,29.8c0.1,0.2,0.2,0.4,0.3,0.6C283.9,30.2,283.8,30,283.7,29.8z"/>
		<path class="st0" d="M284.1,30.6c0.1,0.2,0.2,0.5,0.3,0.7C284.3,31.1,284.2,30.8,284.1,30.6z"/>
		<path class="st0" d="M284.4,31.4c0.1,0.3,0.2,0.6,0.2,0.9C284.6,32,284.5,31.7,284.4,31.4z"/>
		<path class="st0" d="M295.9,48.1v-5.8h0.8V37h-0.8v-5.7h0.8v-3.5h13.1v-2h-20.1v4.7c1.5,1.5,2.2,3.7,2.2,6.6
			c0,2.9-0.7,5.1-2.2,6.7V50l2.6,3.6h4.4v-5.5H295.9z"/>
		<rect x="302.9" y="37" class="st0" width="5.5" height="2"/>
		<rect x="302.9" y="48.1" class="st0" width="7.3" height="2"/>
		<path class="st0" d="M330.5,44.2c-3.2-0.8-5.6-1.8-7.1-3c-1.5-1.2-2.3-3.2-2.3-5.8c0-0.2,0-0.4,0-0.6l0,0
			c-0.4-0.4-0.6-0.9-0.6-1.5c0-0.8,0.3-1.5,0.9-2c0.3-0.2,0.7-0.4,1.1-0.6c0.4-0.6,0.9-1.1,1.5-1.5c1.9-1.4,4.3-2.2,7.1-2.2
			c0.4,0,0.7,0,1.1,0c0.4,0.2,0.8,0.5,1.2,0.7c-1.1-0.8-2.3-1.4-3.7-1.8c-1.9-0.6-3.7-1-5.6-1c-2.8,0-5.2,0.7-7.1,2.2
			c-0.4,0.3-0.7,0.6-1,0.9c0.1-0.1,0.3-0.3,0.4-0.4h0.3v5.5h-2.6c0,0,0,0.1,0,0.1c0,2.6,0.8,4.6,2.3,5.8c1.5,1.2,3.9,2.2,7.1,3
			c2,0.5,3.4,1,4.1,1.5c0.7,0.5,1,1.2,1,2c0,0.8-0.3,1.5-1,2c-0.4,0.3-1,0.5-1.6,0.6c2.1,1.4,4.1,2.1,5.9,2.1c0.6,0,1.1-0.1,1.6-0.2
			c0.9-1.2,1.4-2.6,1.5-4.1c-0.1-0.1-0.3-0.3-0.4-0.4C334,45.2,332.6,44.7,330.5,44.2z"/>
		<path class="st0" d="M323.8,48.3c-0.1,0-0.2,0-0.3-0.1C323.6,48.3,323.7,48.3,323.8,48.3z"/>
		<path class="st0" d="M315.1,29.4c0.1-0.2,0.2-0.3,0.3-0.4C315.3,29.1,315.2,29.2,315.1,29.4z"/>
		<path class="st0" d="M314.8,30.1c0.1-0.2,0.1-0.3,0.2-0.5C314.9,29.7,314.9,29.9,314.8,30.1z"/>
		<path class="st0" d="M314.5,30.8c0.1-0.2,0.1-0.3,0.2-0.5C314.6,30.5,314.6,30.6,314.5,30.8z"/>
		<path class="st0" d="M330.4,32.6c0.3,0.2,0.7,0.5,1,0.7l0.5-0.7c-0.3,0-0.7,0-1,0C330.8,32.5,330.6,32.6,330.4,32.6z"/>
		<path class="st0" d="M329,31.8c-0.1,0-0.1-0.1-0.2-0.1C328.9,31.7,328.9,31.7,329,31.8z"/>
		<path class="st0" d="M333.4,27.9c0.4,0.3,0.8,0.6,1.1,0.9C334.2,28.4,333.8,28.2,333.4,27.9z"/>
		<path class="st0" d="M323.9,30.5c-0.3,0-0.5,0-0.7,0C323.4,30.6,323.7,30.5,323.9,30.5z"/>
		<path class="st0" d="M326.6,30.9c-0.2,0-0.3-0.1-0.5-0.1C326.3,30.8,326.4,30.8,326.6,30.9z"/>
		<path class="st0" d="M327.5,31.1c-0.1,0-0.3-0.1-0.4-0.1C327.2,31,327.3,31.1,327.5,31.1z"/>
		<path class="st0" d="M328.3,31.5c-0.1,0-0.2-0.1-0.4-0.1C328,31.4,328.2,31.4,328.3,31.5z"/>
		<path class="st0" d="M315.6,28.7c0.1-0.1,0.2-0.3,0.3-0.4C315.8,28.4,315.7,28.6,315.6,28.7z"/>
		<path class="st0" d="M324.8,30.6c-0.3,0-0.6,0-0.9,0C324.2,30.5,324.5,30.6,324.8,30.6z"/>
		<path class="st0" d="M325.7,30.7c-0.2,0-0.4-0.1-0.6-0.1C325.3,30.6,325.5,30.7,325.7,30.7z"/>
		<path class="st0" d="M314.3,31.6c0-0.2,0.1-0.4,0.1-0.5C314.4,31.2,314.4,31.4,314.3,31.6z"/>
		<path class="st0" d="M314.2,33.3c0-0.5,0.1-1,0.1-1.5C314.2,32.2,314.2,32.7,314.2,33.3z"/>
		<path class="st0" d="M325.6,48.4c-0.2,0-0.4,0-0.6,0C325.2,48.4,325.4,48.4,325.6,48.4z"/>
		<path class="st0" d="M333.6,50.2c-0.2,0.2-0.4,0.5-0.6,0.7C333.2,50.7,333.4,50.4,333.6,50.2z"/>
		<path class="st0" d="M313,49c3.3,3,6.9,4.6,10.9,4.9c-1.4-0.7-2.7-1.7-3.9-2.9l2.5-3c0,0,0,0,0,0c-1.8-0.6-3.7-1.7-5.8-3.5L313,49
			z M317.2,52c-1-0.5-2-1.2-3-1.9h3V52z"/>
		<path class="st0" d="M333,50.9c-0.2,0.2-0.5,0.5-0.7,0.7C332.6,51.4,332.8,51.2,333,50.9z"/>
		<path class="st0" d="M325,48.4c-0.3,0-0.5,0-0.8-0.1C324.5,48.4,324.8,48.4,325,48.4z"/>
		<path class="st0" d="M339.1,31.2c0.1-0.3,0.2-0.6,0.3-0.8C339.2,30.6,339.2,30.9,339.1,31.2z"/>
		<path class="st0" d="M339.2,50.3c-0.2-0.1-0.3-0.3-0.5-0.4C338.9,50.1,339.1,50.2,339.2,50.3z"/>
		<path class="st0" d="M349.5,30.6c-0.3,0-0.6,0-0.9,0C348.9,30.5,349.2,30.6,349.5,30.6z"/>
		<path class="st0" d="M353.6,31.8c-0.1,0-0.1-0.1-0.2-0.1C353.5,31.7,353.6,31.7,353.6,31.8z"/>
		<path class="st0" d="M351.3,30.9c-0.2,0-0.3-0.1-0.5-0.1C350.9,30.8,351.1,30.8,351.3,30.9z"/>
		<path class="st0" d="M358.1,27.9c0.4,0.3,0.8,0.6,1.1,0.9C358.9,28.4,358.5,28.2,358.1,27.9z"/>
		<path class="st0" d="M350.4,30.7c-0.2,0-0.4-0.1-0.6-0.1C350,30.6,350.2,30.7,350.4,30.7z"/>
		<path class="st0" d="M349.7,48.4c-0.3,0-0.5,0-0.8-0.1C349.1,48.4,349.4,48.4,349.7,48.4z"/>
		<path class="st0" d="M359.7,46.1c-0.1-0.1-0.3-0.3-0.4-0.4c-0.7-0.5-2.1-1-4.1-1.5c-3.2-0.8-5.6-1.8-7.1-3s-2.3-3.2-2.3-5.8
			c0-0.2,0-0.4,0-0.6c-0.4-0.4-0.6-0.9-0.6-1.5c0-0.8,0.3-1.5,0.9-2c0.3-0.2,0.7-0.4,1.1-0.6c0.4-0.6,0.9-1.1,1.5-1.5
			c1.9-1.4,4.3-2.2,7.1-2.2c0.4,0,0.7,0,1.1,0c0.4,0.2,0.8,0.5,1.2,0.7c-1.1-0.8-2.3-1.4-3.7-1.8c-1.9-0.6-3.7-1-5.6-1
			c-2.8,0-5.2,0.7-7.1,2.2c-1.1,0.8-1.9,1.8-2.3,3.1c0.1-0.3,0.2-0.6,0.4-0.8c0.7,0.4,1.3,0.8,1.8,1.3l-2.7,3.9
			c0-0.4-0.1-0.8-0.1-1.3c0,2.6,0.8,4.6,2.3,5.8s3.9,2.2,7.1,3c2,0.5,3.4,1,4.1,1.5c0.7,0.5,1,1.2,1,2c0,0.8-0.3,1.5-1,2
			c-0.4,0.3-1,0.5-1.6,0.6c2.1,1.4,4.1,2.1,5.9,2.1c0.6,0,1.1-0.1,1.6-0.2c-0.2,0.2-0.4,0.5-0.6,0.7c1.4-1.5,2.1-3.3,2.1-5.4
			C359.8,45.7,359.7,45.9,359.7,46.1z"/>
		<path class="st0" d="M352.9,31.5c-0.1-0.1-0.2-0.1-0.4-0.1C352.7,31.4,352.8,31.4,352.9,31.5z"/>
		<path class="st0" d="M348.5,48.3c-0.1,0-0.2,0-0.3-0.1C348.3,48.3,348.4,48.3,348.5,48.3z"/>
		<path class="st0" d="M352.1,31.1c-0.1,0-0.3-0.1-0.4-0.1C351.8,31,352,31.1,352.1,31.1z"/>
		<path class="st0" d="M350.3,48.4c-0.2,0-0.4,0-0.6,0C349.9,48.4,350.1,48.4,350.3,48.4z"/>
		<path class="st0" d="M342.1,47.5c0,1.5-0.4,2.9-1.1,4.1c-0.5-0.3-0.9-0.6-1.4-0.9c2.7,2,5.7,3,8.9,3.2c-1.4-0.7-2.7-1.7-3.9-2.9
			l2.5-3c0,0,0,0,0,0c-1.7-0.5-3.5-1.6-5.3-3.2C342,45.6,342.1,46.5,342.1,47.5z"/>
		<path class="st0" d="M357.7,50.9c-0.2,0.2-0.5,0.5-0.7,0.7C357.2,51.4,357.4,51.2,357.7,50.9z"/>
		<path class="st0" d="M355.6,32.5c-0.2,0-0.4,0-0.5,0c0.3,0.2,0.7,0.5,1,0.7l3.2-4.5l-2.7,3.8C356.3,32.6,355.9,32.5,355.6,32.5z"
			/>
		<path class="st0" d="M338.9,32.1c0-0.3,0.1-0.6,0.1-0.8C339,31.6,338.9,31.8,338.9,32.1z"/>
		<path class="st0" d="M338.8,33.4c0-0.4,0-0.7,0.1-1C338.8,32.6,338.8,33,338.8,33.4z"/>
		<path class="st0" d="M364.3,29.4c0.7,0.4,1.4,0.9,2,1.4l-2,2.8v8c0.1,0.1,0.2,0.1,0.3,0.2c1.5,1.3,2.2,3.2,2.2,5.7
			c0,2.3-0.8,4.3-2.5,5.8v0.3h6.2V25.7h-6.2V29.4z"/>
		<path class="st0" d="M374.7,35.4c0.1-0.2,0.1-0.4,0.2-0.6C374.8,35,374.8,35.2,374.7,35.4z"/>
		<path class="st0" d="M374.4,36.7c0-0.2,0.1-0.4,0.1-0.6C374.5,36.3,374.4,36.5,374.4,36.7z"/>
		<path class="st0" d="M374.3,41.4c0-0.2,0-0.3-0.1-0.5C374.2,41.1,374.3,41.2,374.3,41.4z"/>
		<path class="st0" d="M387.9,30.6c-0.1,0-0.1,0-0.2,0C387.8,30.6,387.8,30.6,387.9,30.6z"/>
		<path class="st0" d="M389.6,30.5c-0.3,0-0.5,0-0.8,0C389.1,30.5,389.4,30.5,389.6,30.5z"/>
		<path class="st0" d="M393.7,32.2C393.7,32.2,393.7,32.2,393.7,32.2C393.7,32.2,393.7,32.2,393.7,32.2z"/>
		<path class="st0" d="M387,30.7C387,30.7,386.9,30.7,387,30.7C386.9,30.7,387,30.7,387,30.7z"/>
		<path class="st0" d="M391.1,30.8c-0.1,0-0.2-0.1-0.4-0.1C390.9,30.8,391,30.8,391.1,30.8z"/>
		<path class="st0" d="M386.1,31C386.1,31,386.1,31,386.1,31C386.1,31,386.1,31,386.1,31z"/>
		<path class="st0" d="M392.5,31.4c-0.1,0-0.1-0.1-0.2-0.1C392.4,31.3,392.4,31.4,392.5,31.4z"/>
		<path class="st0" d="M390.4,30.7c-0.2,0-0.3,0-0.5-0.1C390.1,30.6,390.3,30.6,390.4,30.7z"/>
		<path class="st0" d="M393.1,31.8c-0.1,0-0.1-0.1-0.2-0.1C393,31.7,393.1,31.7,393.1,31.8z"/>
		<path class="st0" d="M374.5,42.8c0-0.2-0.1-0.4-0.1-0.6C374.4,42.5,374.5,42.6,374.5,42.8z"/>
		<path class="st0" d="M375.4,45.4c-0.1-0.2-0.2-0.4-0.3-0.6C375.2,45,375.3,45.2,375.4,45.4z"/>
		<path class="st0" d="M376,46.6c-0.1-0.2-0.2-0.4-0.3-0.6C375.7,46.2,375.8,46.4,376,46.6z"/>
		<path class="st0" d="M374.9,44.2c-0.1-0.2-0.1-0.4-0.2-0.6C374.8,43.8,374.8,44,374.9,44.2z"/>
		<path class="st0" d="M374.2,38.1c0-0.2,0-0.3,0.1-0.5C374.3,37.7,374.2,37.9,374.2,38.1z"/>
		<path class="st0" d="M389.6,48.4c-0.3,0-0.5,0-0.8,0C389.1,48.5,389.4,48.4,389.6,48.4z"/>
		<path class="st0" d="M381.6,43.9C381.6,43.9,381.6,43.9,381.6,43.9C381.6,43.9,381.6,43.9,381.6,43.9z"/>
		<path class="st0" d="M382,44.6c0,0,0.1,0.1,0.1,0.1C382,44.7,382,44.6,382,44.6z"/>
		<path class="st0" d="M376.7,47.7c-0.2-0.2-0.3-0.4-0.4-0.7C376.4,47.3,376.5,47.5,376.7,47.7z"/>
		<path class="st0" d="M382.4,45.2c0.2,0.2,0.3,0.4,0.5,0.6C382.8,45.6,382.6,45.4,382.4,45.2z"/>
		<path class="st0" d="M375.1,34.2c0.1-0.2,0.2-0.4,0.3-0.6C375.3,33.7,375.2,34,375.1,34.2z"/>
		<path class="st0" d="M402.2,33.4c0.1,0.2,0.2,0.5,0.3,0.7C402.4,33.8,402.3,33.6,402.2,33.4z"/>
		<path class="st0" d="M376.2,31.9c0.1-0.2,0.3-0.4,0.4-0.7C376.5,31.4,376.4,31.7,376.2,31.9z"/>
		<path class="st0" d="M401.6,32.3c0.1,0.2,0.2,0.4,0.3,0.6C401.8,32.7,401.7,32.5,401.6,32.3z"/>
		<path class="st0" d="M402.6,34.4c0.4,1,0.6,2.1,0.8,3.3C403.2,36.5,403,35.4,402.6,34.4z"/>
		<path class="st0" d="M400.9,31.2c0.1,0.2,0.2,0.3,0.3,0.5C401.2,31.6,401,31.4,400.9,31.2z"/>
		<path class="st0" d="M397.9,28.1c0.4,0.3,0.9,0.7,1.3,1.1C398.8,28.8,398.4,28.4,397.9,28.1z"/>
		<path class="st0" d="M395.8,27.1c0.2,0,0.4,0,0.7,0c0.5,0.3,0.9,0.6,1.3,0.9c-2.5-2-5.5-2.9-9-2.9c-4.1,0-7.6,1.4-10.4,4.1
			c-0.5,0.5-1,1.1-1.4,1.7c0.2-0.2,0.3-0.5,0.5-0.7v18.6c-0.2-0.2-0.4-0.5-0.5-0.7c0.4,0.6,0.9,1.1,1.4,1.7
			c2.8,2.8,6.3,4.1,10.4,4.1c-0.2,0-0.4,0-0.7,0c-1-0.6-1.9-1.3-2.7-2.1c-2.4-2.4-3.8-5.2-4.1-8.5c-0.5-1.1-0.7-2.4-0.7-3.7
			c0-2.5,0.8-4.6,2.4-6.4c0.7-0.8,1.5-1.4,2.3-1.8c0,0,0.1-0.1,0.1-0.1C388.2,28.5,391.7,27.1,395.8,27.1z"/>
		<path class="st0" d="M401.7,35.1c-1.6-1.8-3.6-2.6-5.9-2.6c-0.6,0-1.1,0.1-1.6,0.2c0.2,0.2,0.3,0.3,0.5,0.5
			c1.6,1.8,2.4,3.9,2.4,6.4s-0.8,4.6-2.4,6.3c-1.2,1.3-2.7,2.2-4.3,2.5c1.5,1.4,3.3,2.1,5.4,2.1c1.3,0,2.4-0.3,3.5-0.8
			c0,0,0,0.1-0.1,0.1c2.8-2.8,4.2-6.2,4.2-10.3c0-0.6,0-1.2-0.1-1.8C402.9,36.7,402.4,35.9,401.7,35.1z"/>
		<path class="st0" d="M400.1,30.2c0.1,0.1,0.2,0.3,0.3,0.4C400.3,30.4,400.2,30.3,400.1,30.2z"/>
		<path class="st0" d="M391.8,31.1c-0.1,0-0.2-0.1-0.3-0.1C391.7,31,391.8,31.1,391.8,31.1z"/>
		<path class="st0" d="M375.6,33c0.1-0.2,0.2-0.4,0.3-0.6C375.8,32.6,375.7,32.8,375.6,33z"/>
		<path class="st0" d="M414.5,27.7l12.2,16l-13.7-18h-5.8v6.5c2.2,2.6,3.3,5.7,3.3,9.3c0,3.6-1.1,6.7-3.3,9.3v2.8h6.2V36.1l0.8,1
			v-9.4H414.5z"/>
		<polygon class="st0" points="420.3,45.3 426.6,53.6 432.1,53.6 420.3,38.1 		"/>
		<polygon class="st0" points="426.6,25.7 426.6,36.5 432.8,44.7 432.8,25.7 		"/>
		<polygon class="st0" points="42.1,35.7 39,43.5 42.1,35.7 		"/>
		<polygon class="st0" points="32.7,27.7 32.7,27.7 39,43.5 		"/>
		<polygon class="st0" points="42.1,52.4 43.5,49 42.1,52.4 		"/>
		<path class="st0" d="M69.4,39.4L69.4,39.4c-0.1-0.1-0.2-0.1-0.3-0.2C69.2,39.3,69.3,39.3,69.4,39.4z"/>
		<path class="st0" d="M67.8,29.4c-0.1,0.1-0.1,0.2-0.1,0.3C67.7,29.5,67.8,29.4,67.8,29.4z"/>
		<path class="st0" d="M68.2,28.7c-0.1,0.1-0.1,0.1-0.2,0.2C68.1,28.9,68.2,28.8,68.2,28.7z"/>
		<path class="st0" d="M67.5,30c0,0.1-0.1,0.2-0.1,0.3C67.4,30.3,67.4,30.2,67.5,30z"/>
		<path class="st0" d="M68.7,28.2c0,0-0.1,0.1-0.1,0.1C68.6,28.3,68.6,28.2,68.7,28.2z"/>
		<path class="st0" d="M67.2,30.8c0,0.1-0.1,0.3-0.1,0.4C67.1,31.1,67.2,30.9,67.2,30.8z"/>
		<path class="st0" d="M66.9,32.4c0,0.3,0,0.6,0,0.9C66.8,33,66.9,32.7,66.9,32.4z"/>
		<path class="st0" d="M67,31.6c0,0.2-0.1,0.4-0.1,0.5C66.9,31.9,67,31.8,67,31.6z"/>
		<path class="st0" d="M66.8,50c-0.4-0.3-0.8-0.6-1.1-1C66,49.4,66.4,49.7,66.8,50z"/>
		<path class="st0" d="M69.4,44.5C69.4,44.5,69.4,44.5,69.4,44.5L69.4,44.5C69.4,44.5,69.4,44.5,69.4,44.5z"/>
		<path class="st0" d="M67.8,50.8c-0.2-0.1-0.4-0.3-0.5-0.4C67.5,50.5,67.6,50.6,67.8,50.8z"/>
		<path class="st0" d="M377,48.1c-0.1-0.1-0.2-0.2-0.3-0.4C376.8,47.9,376.9,48,377,48.1z"/>
		<path class="st0" d="M375.4,33.5c0.1-0.2,0.2-0.4,0.3-0.5C375.5,33.2,375.4,33.3,375.4,33.5z"/>
		<path class="st0" d="M376.2,47.1c-0.1-0.2-0.2-0.3-0.3-0.5C376.1,46.8,376.1,46.9,376.2,47.1z"/>
		<path class="st0" d="M376,32.3c0.1-0.2,0.2-0.3,0.3-0.5C376.1,32,376.1,32.2,376,32.3z"/>
		<path class="st0" d="M374.9,34.8c0.1-0.2,0.1-0.4,0.2-0.6C375,34.4,375,34.6,374.9,34.8z"/>
		<path class="st0" d="M374.4,42.3c-0.1-0.3-0.1-0.6-0.1-0.9C374.3,41.7,374.4,42,374.4,42.3z"/>
		<path class="st0" d="M374.2,40.9c0-0.5-0.1-0.9-0.1-1.4C374.2,40,374.2,40.4,374.2,40.9z"/>
		<path class="st0" d="M374.2,39.5c0-0.5,0-1,0.1-1.4C374.2,38.5,374.2,39,374.2,39.5z"/>
		<path class="st0" d="M376.7,31.2c0.1-0.1,0.2-0.2,0.3-0.4C376.9,31,376.8,31.1,376.7,31.2z"/>
		<path class="st0" d="M374.5,36.1c0.1-0.2,0.1-0.5,0.2-0.7C374.6,35.6,374.6,35.9,374.5,36.1z"/>
		<path class="st0" d="M374.3,37.6c0-0.3,0.1-0.6,0.1-0.9C374.4,37,374.3,37.3,374.3,37.6z"/>
		<path class="st0" d="M375.1,44.8c-0.1-0.2-0.1-0.4-0.2-0.6C375,44.4,375,44.6,375.1,44.8z"/>
		<path class="st0" d="M374.7,43.6c-0.1-0.2-0.1-0.5-0.2-0.7C374.6,43.1,374.6,43.3,374.7,43.6z"/>
		<path class="st0" d="M375.6,46c-0.1-0.2-0.2-0.4-0.3-0.5C375.4,45.6,375.5,45.8,375.6,46z"/>
		<polygon class="st0" points="414.1,37.2 420.3,45.3 420.3,45.3 414.1,37.2 		"/>
		<path class="st0" d="M388.8,30.5c-0.3,0-0.6,0-0.9,0.1C388.2,30.5,388.5,30.5,388.8,30.5z"/>
		<path class="st0" d="M390.8,30.7c-0.1,0-0.3-0.1-0.4-0.1C390.5,30.7,390.7,30.7,390.8,30.7z"/>
		<path class="st0" d="M389.9,30.6c-0.1,0-0.2,0-0.3,0C389.7,30.6,389.8,30.6,389.9,30.6z"/>
		<path class="st0" d="M391.6,31c-0.1-0.1-0.3-0.1-0.4-0.1C391.3,30.9,391.4,30.9,391.6,31z"/>
		<path class="st0" d="M401.3,31.7c0.1,0.2,0.2,0.4,0.3,0.6C401.5,32.1,401.4,31.9,401.3,31.7z"/>
		<path class="st0" d="M401.9,32.9c0.1,0.2,0.2,0.3,0.2,0.5C402.1,33.2,402,33,401.9,32.9z"/>
		<path class="st0" d="M399.2,29.2c0.3,0.3,0.6,0.6,0.9,1C399.8,29.9,399.5,29.5,399.2,29.2z"/>
		<path class="st0" d="M400.4,30.6c0.2,0.2,0.3,0.4,0.5,0.6C400.8,31,400.6,30.8,400.4,30.6z"/>
		<path class="st0" d="M397.8,28C397.9,28,397.9,28.1,397.8,28C397.9,28.1,397.9,28,397.8,28z"/>
		<path class="st0" d="M387.7,30.6c-0.3,0-0.5,0.1-0.8,0.1C387.2,30.7,387.5,30.6,387.7,30.6z"/>
		<path class="st0" d="M386.9,30.7c-0.3,0.1-0.5,0.1-0.8,0.2C386.4,30.9,386.6,30.8,386.9,30.7z"/>
		<path class="st0" d="M385.3,31.3c0.3-0.1,0.5-0.3,0.8-0.4C385.8,31.1,385.5,31.2,385.3,31.3L385.3,31.3z"/>
		<path class="st0" d="M402.5,34.1c0,0.1,0.1,0.2,0.1,0.3C402.5,34.3,402.5,34.2,402.5,34.1z"/>
		<polygon class="st0" points="403.3,37.7 403.3,37.7 403.3,37.7 		"/>
		<path class="st0" d="M393.7,32.2c0.2,0.1,0.3,0.3,0.5,0.4l0,0C394.1,32.5,393.9,32.3,393.7,32.2z"/>
		<path class="st0" d="M393.6,32.1c-0.2-0.1-0.3-0.2-0.5-0.4C393.3,31.9,393.5,32,393.6,32.1z"/>
		<path class="st0" d="M392.3,31.3c-0.1-0.1-0.3-0.1-0.5-0.2C392,31.2,392.1,31.2,392.3,31.3z"/>
		<path class="st0" d="M393,31.7c-0.2-0.1-0.3-0.2-0.5-0.3C392.7,31.5,392.8,31.6,393,31.7z"/>
		<path class="st0" d="M389.6,48.4c0.3,0,0.5-0.1,0.8-0.1l0,0C390.2,48.4,389.9,48.4,389.6,48.4z"/>
		<path class="st0" d="M381.6,43.9c0.1,0.2,0.2,0.4,0.4,0.7C381.8,44.4,381.7,44.1,381.6,43.9z"/>
		<path class="st0" d="M381.3,43.2C381.3,43.2,381.3,43.2,381.3,43.2c0.1,0.2,0.2,0.5,0.3,0.7C381.5,43.7,381.4,43.5,381.3,43.2z"/>
		<path class="st0" d="M382.1,44.7c0.1,0.2,0.2,0.3,0.4,0.5C382.3,45.1,382.2,44.9,382.1,44.7z"/>
		<path class="st0" d="M346.3,35.2c-0.2-0.1-0.4-0.3-0.5-0.4v0C346,34.9,346.2,35,346.3,35.2z"/>
		<path class="st0" d="M350.3,48.4c0.2,0,0.3,0,0.5-0.1l0,0C350.6,48.3,350.4,48.4,350.3,48.4z"/>
		<path class="st0" d="M349.6,53.9c-0.3,0-0.7,0-1,0l0,0C348.9,53.9,349.2,53.9,349.6,53.9z"/>
		<path class="st0" d="M348.2,48.3c-0.4-0.1-0.7-0.2-1.1-0.3C347.5,48.1,347.8,48.2,348.2,48.3z"/>
		<path class="st0" d="M357.7,50.9C357.7,50.9,357.7,50.9,357.7,50.9C357.7,50.9,357.7,50.9,357.7,50.9z"/>
		<path class="st0" d="M348.9,48.4c-0.1,0-0.2,0-0.4,0C348.6,48.3,348.7,48.4,348.9,48.4z"/>
		<path class="st0" d="M350.8,30.8c-0.1,0-0.3-0.1-0.4-0.1C350.5,30.7,350.6,30.7,350.8,30.8z"/>
		<path class="st0" d="M358.1,27.9C358.1,27.9,358.1,27.9,358.1,27.9C358.1,27.9,358.1,27.9,358.1,27.9z"/>
		<path class="st0" d="M349.8,30.6c-0.1,0-0.2,0-0.3,0C349.6,30.6,349.7,30.6,349.8,30.6z"/>
		<path class="st0" d="M347.2,30.7c0.4-0.1,0.9-0.2,1.4-0.2C348.1,30.5,347.6,30.6,347.2,30.7L347.2,30.7z"/>
		<path class="st0" d="M351.7,31c-0.1,0-0.3-0.1-0.4-0.1C351.4,30.9,351.5,31,351.7,31z"/>
		<path class="st0" d="M355.1,32.6L355.1,32.6c-0.5-0.3-0.9-0.6-1.4-0.8C354.1,32,354.6,32.3,355.1,32.6z"/>
		<path class="st0" d="M353.5,31.7c-0.2-0.1-0.3-0.2-0.5-0.2C353.1,31.5,353.3,31.6,353.5,31.7z"/>
		<path class="st0" d="M352.6,31.3c-0.2-0.1-0.3-0.1-0.5-0.2C352.3,31.2,352.4,31.2,352.6,31.3z"/>
		<path class="st0" d="M339.6,50.6c-0.1-0.1-0.3-0.2-0.4-0.3C339.4,50.5,339.5,50.5,339.6,50.6z"/>
		<path class="st0" d="M338.7,50c-0.4-0.3-0.7-0.6-1.1-0.9C338,49.3,338.4,49.7,338.7,50z"/>
		<path class="st0" d="M341.3,44.5c0.1,0.1,0.3,0.2,0.4,0.4l0,0C341.6,44.7,341.5,44.6,341.3,44.5z"/>
		<path class="st0" d="M339,31.3c0,0,0-0.1,0-0.1C339.1,31.2,339.1,31.3,339,31.3z"/>
		<path class="st0" d="M339.3,30.3C339.3,30.3,339.4,30.3,339.3,30.3C339.4,30.3,339.3,30.3,339.3,30.3z"/>
		<path class="st0" d="M338.9,32.3c0-0.1,0-0.1,0-0.2C338.9,32.2,338.9,32.2,338.9,32.3z"/>
		<path class="st0" d="M325.6,48.4c0.2,0,0.3,0,0.5-0.1h0C325.9,48.3,325.8,48.4,325.6,48.4z"/>
		<path class="st0" d="M323.5,48.3c-0.4-0.1-0.7-0.2-1.1-0.3C322.8,48.1,323.2,48.2,323.5,48.3z"/>
		<polygon class="st0" points="333.6,50.2 333.6,50.2 333.6,50.2 		"/>
		<path class="st0" d="M324.2,48.4c-0.1,0-0.2,0-0.4,0C324,48.3,324.1,48.4,324.2,48.4z"/>
		<path class="st0" d="M324.9,53.9c-0.3,0-0.7,0-1,0l0,0C324.2,53.9,324.6,53.9,324.9,53.9z"/>
		<path class="st0" d="M333,50.9C333,50.9,333,50.9,333,50.9C333,50.9,333,50.9,333,50.9z"/>
		<path class="st0" d="M327,31c-0.1,0-0.3-0.1-0.4-0.1C326.7,30.9,326.9,31,327,31z"/>
		<polygon class="st0" points="331.9,32.6 334.6,28.7 331.9,32.6 		"/>
		<path class="st0" d="M327.9,31.3c-0.2-0.1-0.3-0.1-0.5-0.2C327.6,31.2,327.8,31.2,327.9,31.3z"/>
		<path class="st0" d="M328.8,31.7c-0.2-0.1-0.3-0.2-0.5-0.2C328.5,31.5,328.6,31.6,328.8,31.7z"/>
		<path class="st0" d="M326.1,30.8c-0.1,0-0.3-0.1-0.4-0.1C325.9,30.7,326,30.7,326.1,30.8z"/>
		<path class="st0" d="M330.4,32.6L330.4,32.6c-0.5-0.3-0.9-0.6-1.4-0.8C329.5,32,329.9,32.3,330.4,32.6z"/>
		<path class="st0" d="M325.2,30.6c-0.1,0-0.2,0-0.3,0C324.9,30.6,325.1,30.6,325.2,30.6z"/>
		<path class="st0" d="M333.4,27.9C333.4,27.9,333.4,27.9,333.4,27.9C333.4,27.9,333.4,27.9,333.4,27.9z"/>
		<path class="st0" d="M322.6,30.7c0.2-0.1,0.4-0.1,0.7-0.1C323,30.6,322.8,30.7,322.6,30.7L322.6,30.7z"/>
		<path class="st0" d="M335.1,46.1c0-0.2,0-0.4,0-0.6C335.1,45.7,335.1,45.9,335.1,46.1L335.1,46.1z"/>
		<path class="st0" d="M321.7,35.2c-0.2-0.1-0.4-0.3-0.5-0.4C321.3,34.9,321.5,35,321.7,35.2z"/>
		<path class="st0" d="M314.5,31.1c0-0.1,0-0.2,0.1-0.3C314.5,30.9,314.5,31,314.5,31.1z"/>
		<path class="st0" d="M315.9,28.3c0,0,0.1-0.1,0.1-0.1C316,28.2,315.9,28.2,315.9,28.3z"/>
		<path class="st0" d="M315.4,28.9c0-0.1,0.1-0.1,0.1-0.2C315.5,28.8,315.5,28.8,315.4,28.9z"/>
		<path class="st0" d="M315,29.6c0-0.1,0.1-0.2,0.1-0.2C315.1,29.4,315.1,29.5,315,29.6z"/>
		<path class="st0" d="M314.7,30.3c0-0.1,0.1-0.2,0.1-0.3C314.8,30.1,314.7,30.2,314.7,30.3z"/>
		<polygon class="st0" points="314.2,33.3 314.2,33.3 314.2,33.3 		"/>
		<path class="st0" d="M314.3,31.8c0-0.1,0-0.1,0-0.2C314.3,31.7,314.3,31.7,314.3,31.8z"/>
		<path class="st0" d="M275.5,39.1c-0.3,0.1-0.7,0.1-1.1,0.2C274.8,39.2,275.2,39.2,275.5,39.1z"/>
		<path class="st0" d="M280.7,43.1c-0.4,0.2-0.7,0.4-1.2,0.5C280,43.5,280.4,43.3,280.7,43.1z"/>
		<path class="st0" d="M274.3,39.3c-0.4,0-0.8,0.1-1.3,0.1C273.5,39.3,273.9,39.3,274.3,39.3z"/>
		<polygon class="st0" points="275.5,48.6 275.5,48.6 272.8,44.7 		"/>
		<path class="st0" d="M281.7,42.5c-0.1,0.1-0.2,0.1-0.2,0.2C281.5,42.6,281.6,42.5,281.7,42.5z"/>
		<path class="st0" d="M282.5,41.8C282.5,41.8,282.5,41.8,282.5,41.8C282.5,41.8,282.5,41.8,282.5,41.8z"/>
		<path class="st0" d="M284.6,32.3C284.6,32.3,284.6,32.3,284.6,32.3C284.6,32.3,284.6,32.3,284.6,32.3z"/>
		<path class="st0" d="M283.6,29.6c0,0.1,0.1,0.2,0.1,0.2C283.7,29.7,283.6,29.7,283.6,29.6z"/>
		<path class="st0" d="M284.4,31.3c0,0,0,0.1,0,0.1C284.4,31.4,284.4,31.4,284.4,31.3z"/>
		<path class="st0" d="M284,30.4c0,0.1,0.1,0.1,0.1,0.2C284.1,30.5,284.1,30.5,284,30.4z"/>
		<path class="st0" d="M282.1,27.9c0.2,0.2,0.4,0.4,0.6,0.6C282.5,28.3,282.3,28.1,282.1,27.9z"/>
		<path class="st0" d="M283,28.8c0.1,0.1,0.2,0.2,0.3,0.3C283.2,29,283.1,28.9,283,28.8z"/>
		<path class="st0" d="M277.9,32.4c0.1,0.2,0.3,0.4,0.4,0.7C278.1,32.8,278,32.6,277.9,32.4z"/>
		<path class="st0" d="M284.8,33.3C284.8,33.3,284.8,33.3,284.8,33.3C284.8,33.3,284.8,33.3,284.8,33.3z"/>
		<path class="st0" d="M253.2,52.8c0,0-0.1,0-0.1,0C253.2,52.8,253.2,52.8,253.2,52.8z"/>
		<path class="st0" d="M254.6,52.2C254.6,52.2,254.6,52.2,254.6,52.2C254.6,52.2,254.6,52.2,254.6,52.2z"/>
		<path class="st0" d="M248.4,48.2c-0.2,0-0.3,0-0.5,0C248.1,48.2,248.2,48.2,248.4,48.2z"/>
		<path class="st0" d="M240.2,44.8c0.1,0.2,0.2,0.3,0.4,0.5C240.5,45.2,240.3,45,240.2,44.8z"/>
		<path class="st0" d="M251.8,53.3c-0.1,0-0.2,0-0.3,0.1C251.6,53.3,251.7,53.3,251.8,53.3z"/>
		<path class="st0" d="M248.6,53.8c-0.6,0-1.2,0.1-1.8,0.1C247.4,53.9,248,53.9,248.6,53.8z"/>
		<path class="st0" d="M250.2,53.6c-0.2,0-0.5,0.1-0.7,0.1C249.8,53.7,250,53.7,250.2,53.6z"/>
		<path class="st0" d="M239.5,43.4c0.2,0.5,0.4,0.9,0.7,1.3C239.9,44.3,239.6,43.9,239.5,43.4z"/>
		<path class="st0" d="M246.2,53.9c0.2,0,0.4,0,0.7,0C246.6,53.9,246.4,53.9,246.2,53.9L246.2,53.9z"/>
		<path class="st0" d="M255.9,28C256,28,256,28,255.9,28C256,28,256,28,255.9,28z"/>
		<polygon class="st0" points="254.6,27.1 254.6,27.1 254.6,27.1 		"/>
		<path class="st0" d="M246.1,30.9c0.3,0,0.7-0.1,1-0.1C246.8,30.8,246.5,30.8,246.1,30.9z"/>
		<path class="st0" d="M252.4,32.4c-0.1-0.1-0.2-0.1-0.3-0.2C252.2,32.3,252.3,32.3,252.4,32.4z"/>
		<path class="st0" d="M243,31.9c0.6-0.3,1.2-0.6,1.9-0.8C244.2,31.3,243.6,31.5,243,31.9z"/>
		<path class="st0" d="M245.1,31.1c0.3-0.1,0.5-0.1,0.8-0.2C245.6,31,245.3,31,245.1,31.1z"/>
		<path class="st0" d="M251.6,31.9c-0.1,0-0.2-0.1-0.2-0.1C251.4,31.8,251.5,31.9,251.6,31.9z"/>
		<polygon class="st0" points="254.6,32.8 257.3,29 254.6,32.8 		"/>
		<path class="st0" d="M236.8,50.1c0.1,0.1,0.1,0.1,0.2,0.2l0,0C236.9,50.2,236.9,50.2,236.8,50.1L236.8,50.1z"/>
		<path class="st0" d="M232.6,42.2c0-0.2-0.1-0.4-0.1-0.6C232.5,41.8,232.5,42,232.6,42.2z"/>
		<path class="st0" d="M232.4,40.9c0-0.4-0.1-0.9-0.1-1.4C232.4,40,232.4,40.5,232.4,40.9z"/>
		<polygon class="st0" points="233.1,44.3 233.1,44.3 233.1,44.3 		"/>
		<path class="st0" d="M232.8,43.3c0-0.1,0-0.2-0.1-0.3C232.8,43.2,232.8,43.2,232.8,43.3z"/>
		<path class="st0" d="M236.6,29.3c-0.3,0.3-0.6,0.6-0.9,0.9C236,29.9,236.3,29.6,236.6,29.3L236.6,29.3z"/>
		<path class="st0" d="M234.9,31.2c0-0.1,0.1-0.1,0.1-0.2C235,31.1,235,31.1,234.9,31.2z"/>
		<path class="st0" d="M234.3,32.2C234.3,32.2,234.3,32.2,234.3,32.2C234.3,32.2,234.3,32.2,234.3,32.2z"/>
		<path class="st0" d="M203.8,33.3C203.8,33.3,203.8,33.3,203.8,33.3C203.8,33.3,203.8,33.3,203.8,33.3z"/>
		<path class="st0" d="M196.8,32.4c0.1,0.2,0.3,0.4,0.4,0.7C197.1,32.8,197,32.6,196.8,32.4z"/>
		<path class="st0" d="M202,28.8c0.1,0.1,0.2,0.2,0.3,0.3C202.2,29,202.1,28.9,202,28.8z"/>
		<path class="st0" d="M203,30.4c0,0.1,0.1,0.1,0.1,0.2C203.1,30.5,203,30.5,203,30.4z"/>
		<path class="st0" d="M203.4,31.3c0,0,0,0.1,0,0.1C203.4,31.4,203.4,31.4,203.4,31.3z"/>
		<path class="st0" d="M203.6,32.3C203.6,32.3,203.6,32.3,203.6,32.3C203.6,32.3,203.6,32.3,203.6,32.3z"/>
		<path class="st0" d="M202.6,29.6c0,0.1,0.1,0.2,0.1,0.2C202.7,29.7,202.6,29.7,202.6,29.6z"/>
		<path class="st0" d="M201.1,27.9c0.2,0.2,0.4,0.4,0.6,0.6C201.5,28.3,201.3,28.1,201.1,27.9z"/>
		<path class="st0" d="M193.4,39.3c0.4,0,0.8-0.1,1.1-0.2l0,0C194.1,39.2,193.8,39.2,193.4,39.3z"/>
		<polygon class="st0" points="202.2,40.9 202.2,40.9 202.2,40.9 		"/>
		<path class="st0" d="M201.5,41.8C201.5,41.8,201.5,41.8,201.5,41.8C201.5,41.8,201.5,41.8,201.5,41.8z"/>
		<path class="st0" d="M199.7,43.1c-0.4,0.2-0.7,0.4-1.2,0.5C199,43.5,199.4,43.3,199.7,43.1z"/>
		<path class="st0" d="M200.7,42.5c-0.1,0.1-0.2,0.1-0.2,0.2C200.5,42.6,200.6,42.5,200.7,42.5z"/>
		<path class="st0" d="M193.3,39.3c-0.4,0-0.8,0.1-1.3,0.1C192.5,39.3,192.9,39.3,193.3,39.3z"/>
		<polygon class="st0" points="134.5,27.8 145.6,53.6 134.5,27.8 		"/>
		<path class="st0" d="M104.4,48.2c-0.2,0-0.4,0.1-0.6,0.1C104,48.3,104.2,48.2,104.4,48.2z"/>
		<path class="st0" d="M105.5,47.8c-0.4,0.2-0.7,0.3-1.1,0.4C104.8,48.1,105.1,48,105.5,47.8z"/>
		<path class="st0" d="M103,53.9C103,53.9,103.1,53.9,103,53.9C103.1,53.9,103,53.9,103,53.9L103,53.9z"/>
		<path class="st0" d="M103.7,48.3c-0.2,0-0.4,0-0.7,0C103.3,48.3,103.5,48.3,103.7,48.3z"/>
		<path class="st0" d="M112.3,49.9L112.3,49.9c-0.2,0.3-0.4,0.5-0.7,0.7C111.9,50.4,112.1,50.1,112.3,49.9z"/>
		<path class="st0" d="M91.3,44.1c0-0.2,0-0.4-0.1-0.6C91.3,43.7,91.3,43.9,91.3,44.1z"/>
		<path class="st0" d="M91.9,46.5c0,0,0-0.1,0-0.1C91.9,46.4,91.9,46.5,91.9,46.5z"/>
		<path class="st0" d="M91.5,45.3c0-0.1,0-0.2-0.1-0.3C91.5,45.2,91.5,45.3,91.5,45.3z"/>
		<path class="st0" d="M92.3,47.6C92.3,47.6,92.3,47.6,92.3,47.6C92.3,47.6,92.3,47.6,92.3,47.6z"/>
		<path class="st0" d="M91.1,42.8c0-0.5-0.1-0.9-0.1-1.4C91.1,41.8,91.1,42.3,91.1,42.8z"/>
		<polygon class="st0" points="86.3,50.2 86.3,50.2 86.3,50.2 		"/>
		<path class="st0" d="M76.2,48.3c-0.4-0.1-0.7-0.2-1.1-0.3C75.5,48.1,75.8,48.2,76.2,48.3z"/>
		<path class="st0" d="M85.7,50.9C85.7,50.9,85.7,50.9,85.7,50.9C85.7,50.9,85.7,50.9,85.7,50.9z"/>
		<path class="st0" d="M78.8,48.3c-0.1,0-0.3,0-0.5,0.1C78.5,48.4,78.6,48.3,78.8,48.3z"/>
		<path class="st0" d="M76.9,48.4c-0.1,0-0.2,0-0.4,0C76.6,48.3,76.8,48.4,76.9,48.4z"/>
		<path class="st0" d="M74.4,35.2c-0.2-0.1-0.4-0.3-0.5-0.4v0C74,34.9,74.2,35,74.4,35.2z"/>
		<polygon class="st0" points="84.6,32.6 87.3,28.7 84.6,32.6 		"/>
		<path class="st0" d="M86.1,27.9C86.1,27.9,86.1,27.9,86.1,27.9C86.1,27.9,86.1,27.9,86.1,27.9z"/>
		<path class="st0" d="M83.1,32.6L83.1,32.6c-0.5-0.3-0.9-0.6-1.4-0.8C82.1,32,82.6,32.3,83.1,32.6z"/>
		<path class="st0" d="M78.8,30.8c-0.1,0-0.3-0.1-0.4-0.1C78.5,30.7,78.7,30.7,78.8,30.8z"/>
		<path class="st0" d="M77.8,30.6c-0.1,0-0.2,0-0.3,0C77.6,30.6,77.7,30.6,77.8,30.6z"/>
		<path class="st0" d="M80.6,31.3c-0.2-0.1-0.3-0.1-0.5-0.2C80.3,31.2,80.4,31.2,80.6,31.3z"/>
		<path class="st0" d="M81.5,31.7c-0.2-0.1-0.3-0.2-0.5-0.2C81.1,31.5,81.3,31.6,81.5,31.7z"/>
		<path class="st0" d="M79.7,31c-0.1,0-0.3-0.1-0.4-0.1C79.4,30.9,79.6,31,79.7,31z"/>
		<path class="st0" d="M75.9,30.6c-0.2,0-0.4,0.1-0.6,0.1C75.5,30.7,75.7,30.6,75.9,30.6z"/>
	</g>
	<g>
		<polygon class="st1" points="53.1,27.7 46,45.5 38.9,27.7 32.7,27.7 39,43.5 42.1,35.7 45.5,44.1 42.1,52.4 32.2,27.7 43.4,55.6 
			48.6,55.6 56.2,36.9 56.2,27.7 		"/>
		<path class="st1" d="M66.8,33.4c0-2.4,0.8-4.2,2.3-5.6h-6v27.9h6.2v-3.9c-1.3-0.7-2.5-1.6-3.7-2.7l3.7-4.5c0,0,0,0,0,0v-5.1
			c-0.1-0.1-0.2-0.1-0.3-0.2C67.6,37.9,66.8,36,66.8,33.4z"/>
		<path class="st1" d="M94.5,49.7c0-0.2,0.1-0.4,0.1-0.6C94.6,49.3,94.6,49.5,94.5,49.7z"/>
		<path class="st1" d="M80.9,49.5c0.1,0.1,0.3,0.1,0.4,0.2C81.2,49.7,81.1,49.6,80.9,49.5z"/>
		<path class="st1" d="M80.1,49.1c0.1,0.1,0.2,0.1,0.3,0.2C80.3,49.2,80.2,49.2,80.1,49.1z"/>
		<path class="st1" d="M94.3,50.4c0.1-0.2,0.1-0.4,0.2-0.6C94.4,50,94.4,50.2,94.3,50.4z"/>
		<path class="st1" d="M74.3,52.4c-0.2-0.1-0.3-0.2-0.5-0.4C74,52.1,74.1,52.2,74.3,52.4z"/>
		<path class="st1" d="M75.6,53.3c-0.2-0.1-0.4-0.3-0.6-0.4C75.2,53,75.4,53.1,75.6,53.3z"/>
		<path class="st1" d="M94.7,48.8c0-0.2,0-0.3,0.1-0.5C94.7,48.5,94.7,48.6,94.7,48.8z"/>
		<path class="st1" d="M92.9,29.7c0.5,0.3,1,0.7,1.4,1C93.8,30.4,93.3,30,92.9,29.7z"/>
		<path class="st1" d="M77.7,48.4c0.4,0,0.7,0,1.1-0.1c0,0,0,0,0,0c-0.8-0.5-1.6-1.1-2.4-1.9L72.6,51l2.5-3
			C76,48.3,76.9,48.4,77.7,48.4z"/>
		<path class="st1" d="M75.9,29.9c0.2-0.2,0.5-0.5,0.8-0.7C76.4,29.4,76.2,29.7,75.9,29.9z"/>
		<path class="st1" d="M85.5,50.4C85.5,50.4,85.5,50.4,85.5,50.4C85.5,50.4,85.5,50.4,85.5,50.4z"/>
		<path class="st1" d="M91.1,28.7c0.5,0.3,1,0.5,1.5,0.8c-1-0.6-2.1-1.1-3.2-1.5c-1.9-0.6-3.7-1-5.6-1c0.4,0,0.7,0,1.1,0
			c0.9,0.5,1.7,1,2.4,1.6l-2.7,3.8c2.2,0.2,4.4,1.1,6.5,2.7V28.7z"/>
		<path class="st1" d="M75.2,30.7c0.2-0.3,0.4-0.5,0.6-0.7C75.6,30.2,75.4,30.5,75.2,30.7z"/>
		<path class="st1" d="M82.9,50.2c0.2,0,0.4,0.1,0.6,0.1C83.4,50.3,83.1,50.3,82.9,50.2z"/>
		<path class="st1" d="M81.8,49.9c0.3,0.1,0.5,0.2,0.8,0.2C82.4,50.1,82.1,50,81.8,49.9z"/>
		<path class="st1" d="M91.1,40.7c-1.3-0.8-2.8-1.4-4.7-1.9c-2.6-0.7-4.3-1.2-5.1-1.7c-0.7-0.5-1.1-1.1-1.1-1.9c0-0.8,0.3-1.5,0.9-2
			c0.5-0.4,1.1-0.6,1.9-0.7c-2.1-1.4-4.3-2-6.5-2c-0.5,0-1,0.1-1.4,0.2c-0.9,1.3-1.4,2.8-1.4,4.6c0-0.2,0-0.4,0-0.6
			c0.1,0.1,0.3,0.3,0.5,0.4c0.7,0.5,2.4,1,5.1,1.7c2.6,0.7,4.7,1.6,6.2,2.9c1.5,1.3,2.2,3.2,2.2,5.7c0,0.2,0,0.4,0,0.6
			c0.4,0.4,0.6,1,0.6,1.6c0,0.8-0.3,1.5-1,2c-0.3,0.2-0.7,0.4-1.1,0.5l0,0c-0.4,0.5-0.8,1-1.3,1.4c-1.9,1.6-4.3,2.3-7.4,2.3
			c-0.3,0-0.7,0-1,0c2.5,1.4,5.1,2,8,2c3.1,0,5.5-0.8,7.4-2.3c1.1-0.9,1.8-2,2.3-3.2c-2.1-2.2-3.2-5.2-3.2-9.1V40.7z"/>
		<path class="st1" d="M91.1,40.7c0.2,0.1,0.4,0.2,0.6,0.4C91.5,41,91.3,40.8,91.1,40.7z"/>
		<path class="st1" d="M83.8,50.4c0.3,0,0.6,0.1,0.9,0.1C84.4,50.4,84.1,50.4,83.8,50.4z"/>
		<path class="st1" d="M99.6,50.1c-0.1-0.2-0.2-0.4-0.3-0.6C99.4,49.7,99.5,49.9,99.6,50.1z"/>
		<path class="st1" d="M100.7,51.8c-0.1-0.1-0.2-0.2-0.2-0.3C100.6,51.6,100.7,51.7,100.7,51.8z"/>
		<path class="st1" d="M103,53.9c-0.3-0.2-0.5-0.4-0.8-0.6C102.5,53.5,102.8,53.7,103,53.9z"/>
		<path class="st1" d="M99.2,49.3c-0.5-1.2-0.8-2.4-1-3.9C98.4,46.8,98.7,48.1,99.2,49.3z"/>
		<path class="st1" d="M117.5,53.6c0.2-0.1,0.3-0.3,0.5-0.4C117.8,53.3,117.6,53.5,117.5,53.6z"/>
		<path class="st1" d="M100.1,51c-0.1-0.1-0.2-0.3-0.3-0.5C99.9,50.7,100,50.8,100.1,51z"/>
		<path class="st1" d="M115.8,43.1c0,2.2-0.5,4-1.5,5.3c-0.5,0.7-1.2,1.2-1.9,1.5c0,0,0,0,0,0c-0.2,0.3-0.4,0.5-0.7,0.7
			c-2.2,2.2-5.1,3.3-8.6,3.3c0,0,0,0,0,0c2,1.3,4.3,2,7,2c2.9,0,5.4-0.8,7.4-2.3h-2l6.5-15V27.7h-6.2V43.1z"/>
		<path class="st1" d="M103.1,48.3c0.9,0,1.7-0.2,2.4-0.5c0.1,0.2,0.2,0.4,0.4,0.6c-1-1.3-1.6-3.1-1.6-5.3V27.7h-6.2v15.6
			c0,0.7,0,1.4,0.1,2.1c0.2,0.4,0.4,0.7,0.7,1C99.9,47.7,101.3,48.3,103.1,48.3z"/>
		<path class="st1" d="M111.3,50.2C111.2,50.2,111.2,50.2,111.3,50.2C111.2,50.2,111.2,50.2,111.3,50.2z"/>
		<polygon class="st1" points="129.1,55.6 131.7,49.6 137.3,49.6 136.4,47.6 126,47.6 122.5,55.6 		"/>
		<polygon class="st1" points="148.1,53.6 148.1,45 148.8,46.8 140.6,27.7 134.6,27.7 127.4,44.3 128.3,42.1 134.1,42.1 131.2,35.5 
			134.5,27.8 145.6,53.6 145.1,53.6 146,55.6 152.6,55.6 151.8,53.6 		"/>
		<polygon class="st1" points="166.2,53.6 155.1,53.6 155.1,55.6 173.2,55.6 173.2,50.1 166.2,50.1 		"/>
		<rect x="155.1" y="27.7" class="st1" width="6.2" height="20.3"/>
		<path class="st1" d="M194.5,39.1v-6h2.7c-0.2-0.5-0.5-0.9-0.9-1.2c-0.8-0.6-2.2-0.8-4.2-0.8h-3.9v8.3h3.8
			C193,39.3,193.8,39.2,194.5,39.1z"/>
		<path class="st1" d="M210.8,38.8c-0.1,0.5-0.1,0.9-0.2,1.3C210.6,39.7,210.7,39.2,210.8,38.8z"/>
		<path class="st1" d="M200.1,41.3c-0.1,0-0.2,0-0.2,0C200,41.3,200.1,41.3,200.1,41.3z"/>
		<path class="st1" d="M210.8,35.5c0,0.5,0.1,1,0.1,1.5C210.9,36.4,210.8,36,210.8,35.5z"/>
		<path class="st1" d="M210.5,33.9c0.1,0.4,0.2,0.8,0.2,1.3C210.7,34.7,210.6,34.3,210.5,33.9z"/>
		<path class="st1" d="M210.1,32.6c0.2,0.4,0.3,0.8,0.4,1.3C210.4,33.4,210.2,33,210.1,32.6z"/>
		<polygon class="st1" points="188.2,44.7 188.2,55.6 194.5,55.6 194.5,48.6 191.8,44.7 		"/>
		<path class="st1" d="M200.9,41.2c-0.1,0-0.2,0-0.2,0C200.8,41.2,200.9,41.2,200.9,41.2z"/>
		<path class="st1" d="M210.5,40.1c-0.2,0.9-0.6,1.8-1.1,2.5V31.4c0.2,0.3,0.4,0.7,0.6,1.1c-0.5-1.1-1.1-1.9-2-2.6
			c-1.7-1.3-4.4-2-8.1-2.2c0.3,0,0.6,0,0.9,0c0.1,0,0.1,0.1,0.2,0.1c1.7,1.4,2.6,3.5,2.8,6.5c0.5,0.6,0.7,1.5,0.7,2.6
			c0,1.5-0.4,2.6-1.2,3.3c-0.3,0.3-0.7,0.5-1.1,0.6c0,0,0,0,0,0c-0.9,1.2-2.1,2.1-3.7,2.7l7.1,10h-2l-4.8-6.9l6.2,8.9h7.7l-7.1-10
			C208.2,44.7,209.8,42.8,210.5,40.1z M209.5,51.1l1.8,2.5h-1.8V51.1z"/>
		<path class="st1" d="M210.9,37c0,0.6,0,1.1-0.1,1.6C210.8,38.1,210.9,37.5,210.9,37z"/>
		<path class="st1" d="M201.6,41.1c-0.1,0-0.1,0-0.2,0C201.5,41.1,201.6,41.1,201.6,41.1z"/>
		<path class="st1" d="M222.7,44.3h10.4c-0.5-1.5-0.7-3-0.7-4.7c0-0.2,0-0.4,0-0.6h-4.2v3.3h-11.7v5.8h6.2V44.3z"/>
		<path class="st1" d="M230,50.1v3.5h-13.5v2H237v-5.3c-0.1-0.1-0.1-0.1-0.2-0.2H230z"/>
		<path class="st1" d="M222.7,33.3h11c0.7-1.5,1.6-2.8,2.8-4v-1.6h-7v3.5h-13.1V37h6.2V33.3z"/>
		<path class="st1" d="M249,48.7C249,48.7,249,48.7,249,48.7C249,48.7,249,48.7,249,48.7z"/>
		<path class="st1" d="M261.1,35.7l1.2-1.8v-4.4c0.3,0.2,0.7,0.5,1,0.7c-2.5-1.9-5.4-3-8.7-3.1c0.9,0.5,1.8,1.2,2.7,1.9l-2.6,3.8
			c1.1,0,2,0.2,3,0.6C258.7,33.9,259.8,34.6,261.1,35.7z"/>
		<path class="st1" d="M240.6,47.7c-0.1-0.2-0.2-0.5-0.3-0.7C240.4,47.2,240.5,47.5,240.6,47.7z"/>
		<path class="st1" d="M241.2,48.8c-0.1-0.2-0.2-0.4-0.3-0.6C240.9,48.4,241,48.6,241.2,48.8z"/>
		<path class="st1" d="M246.2,53.9c-0.4-0.3-0.9-0.6-1.3-0.9C245.3,53.3,245.7,53.6,246.2,53.9z"/>
		<path class="st1" d="M241.8,49.9c-0.1-0.2-0.2-0.3-0.3-0.5C241.6,49.5,241.7,49.7,241.8,49.9z"/>
		<path class="st1" d="M244.8,52.9c-0.4-0.3-0.9-0.7-1.3-1.1C243.9,52.2,244.3,52.6,244.8,52.9z"/>
		<path class="st1" d="M242.6,50.9c-0.1-0.1-0.2-0.3-0.3-0.4C242.4,50.6,242.5,50.8,242.6,50.9z"/>
		<path class="st1" d="M241.1,45.9c1.6,1.6,3.4,2.4,5.6,2.4c0.6,0,1.2,0,1.7-0.1c-0.1-0.1-0.2-0.2-0.3-0.3c-1.6-1.6-2.3-3.7-2.3-6.3
			s0.8-4.8,2.4-6.4c1.4-1.3,3-2.1,4.9-2.3c0,0,0,0,0,0c-0.9-0.7-1.7-1.2-2.5-1.5c-1.1-0.4-2.2-0.6-3.4-0.6c-1.6,0-3,0.4-4.2,1.1
			c0.2-0.2,0.4-0.4,0.6-0.7c-2.8,2.8-4.2,6.2-4.2,10.4c0,1.8,0.3,3.5,0.8,5.1c-0.4-1-0.6-2.1-0.7-3.3
			C239.8,44.3,240.4,45.2,241.1,45.9z"/>
		<path class="st1" d="M257,49.9c0.1,0,0.3-0.1,0.4-0.1C257.2,49.8,257.1,49.9,257,49.9z"/>
		<path class="st1" d="M252.2,50.2c0.1,0,0.2,0,0.4,0.1C252.4,50.2,252.3,50.2,252.2,50.2z"/>
		<path class="st1" d="M264,52.5c0.4-0.4,0.9-0.8,1.3-1.2C264.9,51.7,264.5,52.2,264,52.5z"/>
		<path class="st1" d="M262.6,53.6c0.5-0.3,0.9-0.6,1.4-1C263.5,53,263.1,53.3,262.6,53.6z"/>
		<path class="st1" d="M262.3,41.4h-3.2v7.7c-0.3,0.2-0.6,0.3-1,0.5c-2.7,2.9-6.5,4.4-11.3,4.4c-0.2,0-0.4,0-0.7,0
			c2.2,1.3,4.8,2,7.7,2c3.5,0,6.4-0.8,8.8-2.3h-0.3V41.4z"/>
		<path class="st1" d="M250.8,49.8c0,0,0.1,0,0.1,0.1C250.9,49.8,250.9,49.8,250.8,49.8z"/>
		<path class="st1" d="M251.5,50c0.1,0,0.2,0,0.2,0.1C251.6,50,251.6,50,251.5,50z"/>
		<path class="st1" d="M253.7,50.3c0.5,0,0.9,0,1.4-0.1C254.6,50.3,254.2,50.3,253.7,50.3z"/>
		<path class="st1" d="M252.9,50.3c0.3,0,0.5,0,0.8,0C253.4,50.3,253.2,50.3,252.9,50.3z"/>
		<path class="st1" d="M255.6,50.2c0.2,0,0.5-0.1,0.7-0.1C256.1,50.1,255.8,50.1,255.6,50.2z"/>
		<path class="st1" d="M250.2,49.5C250.2,49.5,250.2,49.5,250.2,49.5C250.2,49.5,250.2,49.5,250.2,49.5z"/>
		<path class="st1" d="M249.6,49.1C249.6,49.1,249.6,49.1,249.6,49.1C249.6,49.1,249.6,49.1,249.6,49.1z"/>
		<path class="st1" d="M291.2,41.1c-0.1,0.2-0.1,0.3-0.2,0.4C291.1,41.4,291.2,41.2,291.2,41.1z"/>
		<path class="st1" d="M290.7,31.7c0.1,0.2,0.2,0.3,0.2,0.5C290.9,32.1,290.8,31.9,290.7,31.7z"/>
		<path class="st1" d="M290.6,42.3c-0.1,0.2-0.2,0.3-0.3,0.5C290.4,42.6,290.5,42.5,290.6,42.3z"/>
		<path class="st1" d="M275.5,39.1v-6h2.7c-0.2-0.5-0.5-0.9-0.9-1.2c-0.8-0.6-2.2-0.8-4.2-0.8h-3.9v8.3h3.8
			C274,39.3,274.8,39.2,275.5,39.1z"/>
		<path class="st1" d="M290.2,31c0.1,0.1,0.2,0.3,0.3,0.5C290.4,31.3,290.3,31.2,290.2,31z"/>
		<path class="st1" d="M291.6,39.9c0,0.1-0.1,0.2-0.1,0.3C291.5,40.2,291.5,40.1,291.6,39.9z"/>
		<path class="st1" d="M292.2,53.6h-2.6V50l-3.1-4.4c1.5-0.5,2.6-1.4,3.5-2.4c-0.1,0.1-0.2,0.3-0.4,0.4V30.4
			c0.1,0.1,0.3,0.3,0.4,0.5c-0.3-0.4-0.6-0.7-1-1c-1.7-1.3-4.4-2-8.1-2.2c0.3,0,0.6,0,0.9,0c0.1,0,0.1,0.1,0.2,0.1
			c1.7,1.4,2.6,3.5,2.8,6.5c0.5,0.6,0.7,1.5,0.7,2.6c0,1.5-0.4,2.6-1.2,3.3c-0.3,0.3-0.7,0.5-1.1,0.6c-0.9,1.2-2.1,2.1-3.7,2.7
			l7.1,10h-2.1l-4.8-6.9l6.2,8.9h7.7l-3.4-4.9L292.2,53.6z"/>
		<path class="st1" d="M282,41.2c-0.1,0-0.2,0-0.2,0C281.8,41.2,281.9,41.2,282,41.2z"/>
		<path class="st1" d="M291.8,38.4c0,0.1,0,0.2,0,0.4C291.8,38.6,291.8,38.5,291.8,38.4z"/>
		<path class="st1" d="M282.6,41.1c-0.1,0-0.1,0-0.2,0C282.5,41.1,282.6,41.1,282.6,41.1z"/>
		<path class="st1" d="M291.6,34.4c0,0.1,0.1,0.3,0.1,0.5C291.7,34.7,291.7,34.5,291.6,34.4z"/>
		<path class="st1" d="M291.8,35.5c0,0.1,0,0.3,0,0.4C291.8,35.7,291.8,35.6,291.8,35.5z"/>
		<polygon class="st1" points="269.3,44.7 269.3,55.6 275.5,55.6 275.5,48.6 272.8,44.7 		"/>
		<path class="st1" d="M281.2,41.3c-0.1,0-0.2,0-0.2,0C281,41.3,281.1,41.3,281.2,41.3z"/>
		<path class="st1" d="M291.1,32.5c0.1,0.2,0.1,0.3,0.2,0.5C291.2,32.8,291.2,32.7,291.1,32.5z"/>
		<path class="st1" d="M291.4,33.4c0,0.2,0.1,0.3,0.1,0.5C291.5,33.7,291.5,33.6,291.4,33.4z"/>
		<polygon class="st1" points="302.9,44.3 315.4,44.3 315.4,39 308.4,39 308.4,42.3 296.7,42.3 296.7,48.1 302.9,48.1 		"/>
		<path class="st1" d="M310.2,50.1v3.5h-13.5v2h20.5V52c-1-0.5-2-1.2-3-1.9H310.2z"/>
		<path class="st1" d="M302.9,33.3h11.3c0-2.3,0.8-4.2,2.3-5.5h-6.7v3.5h-13.1V37h6.2V33.3z"/>
		<path class="st1" d="M342.1,47.5c0,0.4,0,0.7-0.1,1C342.1,48.2,342.1,47.9,342.1,47.5z"/>
		<path class="st1" d="M342,46.2c0,0.4,0.1,0.8,0.1,1.3C342.1,47,342.1,46.6,342,46.2z"/>
		<path class="st1" d="M341.8,44.8c0.1,0.4,0.2,0.8,0.2,1.2C341.9,45.6,341.9,45.2,341.8,44.8z"/>
		<path class="st1" d="M323.2,29.9c0.2-0.2,0.5-0.5,0.8-0.7C323.7,29.4,323.5,29.7,323.2,29.9z"/>
		<path class="st1" d="M338.9,34.6c0-0.4-0.1-0.8-0.1-1.3c0-1.5,0.3-2.8,0.9-3.9c0.3,0.2,0.6,0.4,0.9,0.6c-1.2-0.8-2.5-1.5-4-2
			c-1.9-0.6-3.7-1-5.6-1c0.4,0,0.7,0,1.1,0c0.9,0.5,1.7,1,2.4,1.6l-2.7,3.8c2.2,0.2,4.4,1.1,6.5,2.7L338.9,34.6z"/>
		<path class="st1" d="M326.1,48.3c-0.8-0.5-1.6-1.1-2.4-1.9l-1.2,1.5c0.9,0.3,1.7,0.4,2.6,0.4C325.4,48.4,325.8,48.4,326.1,48.3z"
			/>
		<path class="st1" d="M342,48.8c0,0.2-0.1,0.5-0.1,0.7C341.9,49.3,342,49.1,342,48.8z"/>
		<path class="st1" d="M341.8,49.8c-0.1,0.2-0.1,0.5-0.2,0.7C341.6,50.3,341.7,50.1,341.8,49.8z"/>
		<path class="st1" d="M332.9,50.4C332.9,50.4,332.9,50.4,332.9,50.4C332.9,50.4,332.9,50.4,332.9,50.4z"/>
		<path class="st1" d="M328.3,49.5c0.1,0.1,0.3,0.1,0.4,0.2C328.6,49.7,328.4,49.6,328.3,49.5z"/>
		<path class="st1" d="M321.6,52.4c-0.2-0.1-0.3-0.2-0.5-0.4C321.3,52.1,321.4,52.2,321.6,52.4z"/>
		<path class="st1" d="M322.6,30.7c0.2-0.3,0.4-0.5,0.6-0.7C323,30.2,322.7,30.5,322.6,30.7z"/>
		<path class="st1" d="M329.1,49.9c0.3,0.1,0.5,0.2,0.8,0.2C329.7,50.1,329.4,50,329.1,49.9z"/>
		<path class="st1" d="M322.9,53.3c-0.2-0.1-0.4-0.3-0.6-0.4C322.5,53,322.7,53.1,322.9,53.3z"/>
		<path class="st1" d="M330.3,50.2c0.2,0,0.4,0.1,0.6,0.1C330.7,50.3,330.5,50.3,330.3,50.2z"/>
		<path class="st1" d="M337.6,49l3.7-4.5c0.1,0.1,0.3,0.2,0.4,0.4c-0.3-1.2-1-2.2-1.8-3c-1.5-1.3-3.5-2.3-6.2-2.9
			c-2.6-0.7-4.3-1.2-5.1-1.7c-0.7-0.5-1.1-1.1-1.1-1.9c0-0.8,0.3-1.5,0.9-2c0.5-0.4,1.1-0.6,1.9-0.7c-2.1-1.4-4.3-2-6.5-2
			c-0.5,0-1,0.1-1.4,0.2c-0.9,1.3-1.4,2.8-1.4,4.6c0-0.2,0-0.4,0-0.6c0.1,0.1,0.3,0.3,0.5,0.4c0.7,0.5,2.4,1,5.1,1.7
			c2.6,0.7,4.7,1.6,6.2,2.9c1.5,1.3,2.2,3.2,2.2,5.7c0,0.2,0,0.4,0,0.6c-0.1-0.1-0.3-0.3-0.4-0.4c0.7,0.5,1,1.2,1,2
			c0,0.8-0.3,1.5-1,2c-0.3,0.2-0.7,0.4-1.1,0.5h0c-0.4,0.5-0.8,1-1.3,1.4c-1.9,1.6-4.3,2.3-7.4,2.3c-0.3,0-0.7,0-1,0
			c2.5,1.4,5.1,2,8,2c3.1,0,5.5-0.8,7.4-2.3c1-0.8,1.7-1.8,2.2-2.9c-0.1,0.3-0.3,0.6-0.4,0.8C339.9,50.9,338.7,50,337.6,49z"/>
		<path class="st1" d="M331.2,50.4c0.3,0,0.6,0.1,0.9,0.1C331.7,50.4,331.4,50.4,331.2,50.4z"/>
		<path class="st1" d="M327.4,49.1c0.1,0.1,0.2,0.1,0.3,0.2C327.6,49.2,327.5,49.2,327.4,49.1z"/>
		<path class="st1" d="M364.3,29.4c0.3,0.2,0.7,0.4,1,0.6C365,29.8,364.6,29.6,364.3,29.4z"/>
		<path class="st1" d="M366.2,30.7l-2,2.8v-4.2c-0.9-0.5-1.9-1-2.9-1.3c-1.9-0.6-3.7-1-5.6-1c0.4,0,0.7,0,1.1,0
			c0.9,0.5,1.7,1,2.4,1.6l-2.7,3.8c2.2,0.2,4.4,1.1,6.5,2.7L366.2,30.7z"/>
		<path class="st1" d="M364.6,41.8c-1.5-1.3-3.5-2.3-6.2-2.9c-2.6-0.7-4.3-1.2-5.1-1.7c-0.7-0.5-1.1-1.1-1.1-1.9
			c0-0.8,0.3-1.5,0.9-2s1.4-0.7,2.5-0.7c-0.2,0-0.4,0-0.5,0c-2.1-1.4-4.3-2-6.5-2c-0.5,0-1,0.1-1.4,0.2c0.2-0.3,0.4-0.5,0.6-0.7
			c-1.3,1.4-2,3.2-2,5.4c0-0.2,0-0.4,0-0.6c0.1,0.1,0.3,0.3,0.5,0.4c0.7,0.5,2.4,1,5.1,1.7c2.6,0.7,4.7,1.6,6.2,2.9
			c1.5,1.3,2.2,3.2,2.2,5.7c0,0.2,0,0.4,0,0.6c0.4,0.4,0.6,1,0.6,1.6c0,0.8-0.3,1.5-1,2c-0.3,0.2-0.7,0.4-1.1,0.5
			c-0.4,0.5-0.8,1-1.3,1.4c-1.9,1.6-4.3,2.3-7.4,2.3c-0.3,0-0.7,0-1,0c2.5,1.4,5.1,2,8,2c3.1,0,5.5-0.8,7.4-2.3
			c0.1-0.1,0.2-0.2,0.3-0.3V41.6C364.4,41.7,364.5,41.7,364.6,41.8z"/>
		<path class="st1" d="M349.7,48.4c0.4,0,0.7,0,1.1-0.1c-0.8-0.5-1.6-1.1-2.4-1.9l-3.7,4.5l2.5-3C348,48.3,348.8,48.4,349.7,48.4z"
			/>
		<path class="st1" d="M355.8,50.4c0.3,0,0.6,0.1,0.9,0.1C356.4,50.4,356.1,50.4,355.8,50.4z"/>
		<path class="st1" d="M347.9,29.9c0.2-0.2,0.5-0.5,0.8-0.7C348.4,29.4,348.1,29.7,347.9,29.9z"/>
		<path class="st1" d="M357.5,50.4C357.5,50.4,357.5,50.4,357.5,50.4C357.5,50.4,357.5,50.4,357.5,50.4z"/>
		<path class="st1" d="M366.2,50.6c0.1-0.2,0.2-0.4,0.2-0.6C366.3,50.2,366.3,50.4,366.2,50.6z"/>
		<path class="st1" d="M366.5,49.7c0-0.2,0.1-0.3,0.1-0.5C366.6,49.4,366.5,49.6,366.5,49.7z"/>
		<path class="st1" d="M364.9,52.7c0.2-0.2,0.3-0.4,0.5-0.6C365.2,52.3,365,52.5,364.9,52.7z"/>
		<path class="st1" d="M354.9,50.2c0.2,0,0.4,0.1,0.6,0.1C355.3,50.3,355.1,50.3,354.9,50.2z"/>
		<path class="st1" d="M366.7,48.8c0-0.1,0-0.3,0.1-0.4C366.7,48.5,366.7,48.7,366.7,48.8z"/>
		<path class="st1" d="M365.4,52.1c0.1-0.2,0.3-0.4,0.4-0.6C365.7,51.6,365.5,51.9,365.4,52.1z"/>
		<path class="st1" d="M365.8,51.4c0.1-0.2,0.2-0.4,0.3-0.6C366,51,365.9,51.2,365.8,51.4z"/>
		<path class="st1" d="M364.9,52.7c-0.2,0.2-0.4,0.4-0.6,0.6C364.5,53.1,364.7,52.9,364.9,52.7z"/>
		<path class="st1" d="M352.1,49.1c0.1,0.1,0.2,0.1,0.3,0.2C352.3,49.2,352.2,49.2,352.1,49.1z"/>
		<path class="st1" d="M346.2,52.4c-0.2-0.1-0.3-0.2-0.5-0.4C345.9,52.1,346.1,52.2,346.2,52.4z"/>
		<path class="st1" d="M347.5,53.3c-0.2-0.1-0.4-0.3-0.6-0.4C347.2,53,347.3,53.1,347.5,53.3z"/>
		<path class="st1" d="M352.9,49.5c0.1,0.1,0.3,0.1,0.4,0.2C353.2,49.7,353.1,49.6,352.9,49.5z"/>
		<path class="st1" d="M353.8,49.9c0.3,0.1,0.5,0.2,0.8,0.2C354.3,50.1,354.1,50,353.8,49.9z"/>
		<path class="st1" d="M371.3,55.6h6.2v-6.8c-2.2-2.6-3.3-5.7-3.3-9.3c0-3.6,1.1-6.7,3.3-9.3v-2.5h-6.2V55.6z"/>
		<path class="st1" d="M391.5,49.2c0,0,0.1,0.1,0.1,0.1C391.6,49.3,391.6,49.2,391.5,49.2z"/>
		<path class="st1" d="M407.9,33.2c0.2,0.2,0.3,0.4,0.4,0.7C408.2,33.7,408.1,33.4,407.9,33.2z"/>
		<path class="st1" d="M402.2,35.8c-0.2-0.2-0.3-0.4-0.5-0.6C401.9,35.3,402.1,35.5,402.2,35.8z"/>
		<path class="st1" d="M402.7,36.4c0-0.1-0.1-0.1-0.1-0.2C402.6,36.2,402.6,36.3,402.7,36.4z"/>
		<path class="st1" d="M395,50.4c0.3,0,0.5,0,0.8,0C395.5,50.5,395.3,50.4,395,50.4z"/>
		<path class="st1" d="M408.6,34.3c0.1,0.2,0.2,0.4,0.3,0.6C408.9,34.8,408.8,34.6,408.6,34.3z"/>
		<path class="st1" d="M403,37C403,37,403,37,403,37C403,37,403,37,403,37z"/>
		<path class="st1" d="M390.9,48.8C391,48.8,391,48.8,390.9,48.8C391,48.8,391,48.8,390.9,48.8z"/>
		<path class="st1" d="M407.1,32.2c0.2,0.2,0.4,0.5,0.5,0.7c-0.4-0.6-0.9-1.1-1.4-1.7c-2.7-2.6-5.9-4-9.7-4.1c1,0.6,1.9,1.3,2.7,2.1
			c2.4,2.3,3.8,5.2,4.1,8.4c0,0,0,0,0,0c0.5,1.2,0.8,2.4,0.8,3.8c0,2.5-0.8,4.6-2.4,6.3c-0.7,0.8-1.5,1.4-2.4,1.8c0,0,0,0.1-0.1,0.1
			c-2.8,2.8-6.3,4.1-10.4,4.1c-0.2,0-0.4,0-0.7,0c-0.5-0.3-0.9-0.6-1.3-0.9c2.5,2,5.5,2.9,9,2.9c4.1,0,7.6-1.4,10.4-4.1
			c0.5-0.5,1-1.1,1.4-1.6c-0.2,0.2-0.3,0.5-0.5,0.7V32.2z"/>
		<path class="st1" d="M396.7,50.4c0,0,0.1,0,0.1,0C396.8,50.4,396.8,50.4,396.7,50.4z"/>
		<path class="st1" d="M392.8,49.9c0.1,0,0.2,0.1,0.3,0.1C393,49.9,392.9,49.9,392.8,49.9z"/>
		<path class="st1" d="M383,48.7c-0.1-0.2-0.2-0.4-0.3-0.6C382.8,48.3,382.9,48.5,383,48.7z"/>
		<path class="st1" d="M386.7,52.9c-0.4-0.3-0.9-0.7-1.3-1.1C385.8,52.2,386.2,52.5,386.7,52.9z"/>
		<path class="st1" d="M409.2,35.5c0.1,0.2,0.2,0.4,0.3,0.6C409.4,36,409.3,35.7,409.2,35.5z"/>
		<path class="st1" d="M384.5,50.8c-0.1-0.1-0.2-0.3-0.3-0.4C384.3,50.5,384.4,50.6,384.5,50.8z"/>
		<path class="st1" d="M394.2,50.3c0.2,0,0.3,0,0.5,0.1C394.5,50.4,394.4,50.3,394.2,50.3z"/>
		<path class="st1" d="M382.4,47.5c-0.1-0.2-0.2-0.4-0.3-0.7C382.2,47.1,382.3,47.3,382.4,47.5z"/>
		<path class="st1" d="M392.1,49.6c0.1,0,0.1,0.1,0.2,0.1C392.3,49.6,392.2,49.6,392.1,49.6z"/>
		<path class="st1" d="M393.5,50.1c0.1,0,0.2,0.1,0.3,0.1C393.7,50.2,393.6,50.2,393.5,50.1z"/>
		<path class="st1" d="M410.1,38.1c0,0.2,0.1,0.4,0.1,0.6C410.2,38.5,410.1,38.3,410.1,38.1z"/>
		<path class="st1" d="M408.4,49.1c-0.1,0.2-0.3,0.4-0.4,0.7C408.1,49.5,408.2,49.3,408.4,49.1z"/>
		<path class="st1" d="M410.4,42.9c0,0.2,0,0.3-0.1,0.5C410.3,43.2,410.4,43.1,410.4,42.9z"/>
		<path class="st1" d="M409.9,45.6c-0.1,0.2-0.1,0.4-0.2,0.6C409.8,46,409.9,45.8,409.9,45.6z"/>
		<path class="st1" d="M410.3,39.6c0,0.2,0,0.3,0.1,0.5C410.4,39.9,410.3,39.7,410.3,39.6z"/>
		<path class="st1" d="M382.9,45.8c1.6,1.7,3.6,2.6,5.9,2.6c0.5,0,1.1-0.1,1.6-0.1c-0.2-0.1-0.3-0.3-0.5-0.5
			c-1.6-1.7-2.4-3.9-2.4-6.3s0.8-4.6,2.4-6.4c1.2-1.3,2.6-2.2,4.3-2.5c0,0,0,0,0,0c-1.5-1.4-3.3-2.2-5.4-2.2c-1.3,0-2.5,0.3-3.5,0.8
			c0,0,0.1-0.1,0.1-0.1c-2.8,2.8-4.2,6.2-4.2,10.3c0,1.8,0.3,3.4,0.8,5c-0.4-1-0.6-2.1-0.7-3.2C381.7,44.2,382.2,45,382.9,45.8z"/>
		<path class="st1" d="M410.2,44.3c0,0.2-0.1,0.4-0.1,0.6C410.1,44.6,410.2,44.5,410.2,44.3z"/>
		<path class="st1" d="M397.6,50.3C397.6,50.3,397.7,50.3,397.6,50.3C397.7,50.3,397.6,50.3,397.6,50.3z"/>
		<path class="st1" d="M395,32.5c0.3,0,0.5,0,0.8,0C395.5,32.5,395.3,32.5,395,32.5z"/>
		<path class="st1" d="M383.7,49.7c-0.1-0.2-0.2-0.3-0.3-0.5C383.4,49.4,383.6,49.6,383.7,49.7z"/>
		<path class="st1" d="M409,48c-0.1,0.2-0.2,0.4-0.3,0.6C408.8,48.4,408.9,48.2,409,48z"/>
		<path class="st1" d="M409.5,46.8c-0.1,0.2-0.2,0.4-0.3,0.6C409.3,47.2,409.4,47,409.5,46.8z"/>
		<path class="st1" d="M409.7,36.8c0.1,0.2,0.1,0.4,0.2,0.6C409.9,37.2,409.8,37,409.7,36.8z"/>
		<polygon class="st1" points="433.6,27.7 433.6,45.7 419.9,27.7 414.5,27.7 426.6,43.7 426.6,36.5 432.8,44.7 432.8,53.6 
			432.1,53.6 420.3,38.1 433.6,55.6 439.8,55.6 439.8,27.7 		"/>
		<polygon class="st1" points="414.1,55.6 420.3,55.6 420.3,45.3 414.1,37.2 		"/>
		<path class="st1" d="M409.7,46.2c-0.1,0.2-0.1,0.4-0.2,0.6C409.6,46.6,409.7,46.4,409.7,46.2z"/>
		<path class="st1" d="M410.3,43.4c0,0.3-0.1,0.6-0.1,0.9C410.3,44,410.3,43.7,410.3,43.4z"/>
		<path class="st1" d="M408.6,48.6c-0.1,0.2-0.2,0.3-0.3,0.5C408.5,48.9,408.6,48.8,408.6,48.6z"/>
		<path class="st1" d="M410.1,44.8c-0.1,0.2-0.1,0.5-0.2,0.7C410,45.3,410,45.1,410.1,44.8z"/>
		<path class="st1" d="M409.2,47.4c-0.1,0.2-0.2,0.4-0.3,0.5C409.1,47.8,409.2,47.6,409.2,47.4z"/>
		<path class="st1" d="M407.7,50.1c0.1-0.1,0.2-0.2,0.3-0.4C407.8,49.9,407.7,50,407.7,50.1z"/>
		<path class="st1" d="M409.9,37.4c0.1,0.2,0.1,0.5,0.2,0.7C410,37.9,410,37.6,409.9,37.4z"/>
		<path class="st1" d="M407.7,32.9c0.1,0.1,0.2,0.2,0.3,0.4C407.8,33.1,407.7,33,407.7,32.9z"/>
		<path class="st1" d="M408.4,33.9c0.1,0.2,0.2,0.3,0.3,0.5C408.6,34.2,408.5,34,408.4,33.9z"/>
		<path class="st1" d="M410.2,38.7c0.1,0.3,0.1,0.6,0.1,0.9C410.3,39.3,410.3,39,410.2,38.7z"/>
		<path class="st1" d="M409,35c0.1,0.2,0.2,0.4,0.3,0.5C409.2,35.3,409.1,35.2,409,35z"/>
		<path class="st1" d="M409.5,36.2c0.1,0.2,0.1,0.4,0.2,0.6C409.7,36.6,409.6,36.4,409.5,36.2z"/>
		<path class="st1" d="M410.4,40.1c0,0.5,0.1,0.9,0.1,1.4C410.4,41,410.4,40.5,410.4,40.1z"/>
		<path class="st1" d="M410.4,41.5c0,0.5,0,1-0.1,1.4C410.4,42.4,410.4,42,410.4,41.5z"/>
		<path class="st1" d="M394.2,32.7c0.3,0,0.5-0.1,0.8-0.1C394.7,32.6,394.5,32.6,394.2,32.7z"/>
		<path class="st1" d="M403.3,37.7c-0.1-0.2-0.2-0.4-0.3-0.7C403.1,37.2,403.2,37.4,403.3,37.7z"/>
		<path class="st1" d="M402.5,36.2c-0.1-0.1-0.2-0.3-0.3-0.4C402.3,35.9,402.4,36,402.5,36.2z"/>
		<path class="st1" d="M395.8,27.1c0.2,0,0.4,0,0.7,0l0,0C396.3,27.1,396,27.1,395.8,27.1z"/>
		<path class="st1" d="M403,37c-0.1-0.2-0.2-0.4-0.3-0.6C402.8,36.6,402.9,36.8,403,37z"/>
		<path class="st1" d="M391,48.8c0.2,0.1,0.3,0.2,0.5,0.4C391.3,49.1,391.2,49,391,48.8z"/>
		<path class="st1" d="M396.9,50.4c0.3,0,0.5-0.1,0.8-0.1C397.4,50.3,397.1,50.4,396.9,50.4z"/>
		<path class="st1" d="M390.4,48.3L390.4,48.3c0.2,0.2,0.3,0.3,0.5,0.5C390.8,48.6,390.6,48.5,390.4,48.3z"/>
		<path class="st1" d="M399.3,49.7c-0.5,0.2-1,0.4-1.6,0.6C398.2,50.1,398.8,49.9,399.3,49.7L399.3,49.7z"/>
		<path class="st1" d="M395.8,50.5c0.3,0,0.6,0,0.9,0C396.4,50.4,396.1,50.5,395.8,50.5z"/>
		<path class="st1" d="M393.1,50c0.1,0.1,0.3,0.1,0.4,0.1C393.4,50.1,393.2,50,393.1,50z"/>
		<path class="st1" d="M391.7,49.3c0.2,0.1,0.3,0.2,0.5,0.3C392,49.5,391.8,49.4,391.7,49.3z"/>
		<path class="st1" d="M394.7,50.4c0.1,0,0.2,0,0.3,0C394.9,50.4,394.8,50.4,394.7,50.4z"/>
		<path class="st1" d="M393.8,50.2c0.1,0,0.3,0.1,0.4,0.1C394.1,50.3,394,50.2,393.8,50.2z"/>
		<path class="st1" d="M392.3,49.7c0.2,0.1,0.3,0.1,0.5,0.2C392.6,49.8,392.5,49.7,392.3,49.7z"/>
		<path class="st1" d="M385.4,51.8c-0.3-0.3-0.6-0.7-0.9-1C384.8,51.1,385.1,51.4,385.4,51.8z"/>
		<path class="st1" d="M386.8,52.9C386.8,52.9,386.7,52.9,386.8,52.9C386.7,52.9,386.8,52.9,386.8,52.9z"/>
		<path class="st1" d="M382.1,46.9c-0.1-0.1-0.1-0.3-0.2-0.4C382,46.6,382.1,46.7,382.1,46.9z"/>
		<path class="st1" d="M383.3,49.2c-0.1-0.2-0.2-0.4-0.4-0.6C383.1,48.9,383.2,49,383.3,49.2z"/>
		<path class="st1" d="M384.2,50.4c-0.2-0.2-0.3-0.4-0.5-0.7C383.8,50,384,50.2,384.2,50.4z"/>
		<path class="st1" d="M382.7,48.1c-0.1-0.2-0.2-0.3-0.2-0.5C382.5,47.7,382.6,47.9,382.7,48.1z"/>
		<path class="st1" d="M365.4,52.1C365.4,52.1,365.4,52.1,365.4,52.1C365.4,52.1,365.4,52.1,365.4,52.1z"/>
		<path class="st1" d="M365.8,51.4C365.8,51.4,365.8,51.4,365.8,51.4C365.8,51.4,365.8,51.4,365.8,51.4z"/>
		<path class="st1" d="M364.9,52.7C364.9,52.7,364.9,52.7,364.9,52.7C364.9,52.7,364.9,52.7,364.9,52.7z"/>
		<polygon class="st1" points="364.3,53.3 364.3,53.3 364.3,53.3 		"/>
		<path class="st1" d="M366.7,48.4c0-0.3,0-0.6,0-0.9C366.8,47.8,366.7,48.1,366.7,48.4z"/>
		<path class="st1" d="M366.6,49.2c0-0.1,0-0.3,0.1-0.4C366.6,48.9,366.6,49.1,366.6,49.2z"/>
		<path class="st1" d="M366.4,50c0-0.1,0-0.2,0.1-0.3C366.4,49.8,366.4,49.9,366.4,50z"/>
		<path class="st1" d="M366.1,50.7c0-0.1,0-0.1,0.1-0.2C366.2,50.6,366.1,50.7,366.1,50.7z"/>
		<path class="st1" d="M365.3,30c0.3,0.2,0.7,0.5,1,0.7C365.9,30.5,365.6,30.2,365.3,30z"/>
		<polygon class="st1" points="364.3,29.4 364.3,29.4 364.3,29.4 		"/>
		<path class="st1" d="M359.7,46.1L359.7,46.1c-0.1-0.1-0.3-0.3-0.4-0.4C359.5,45.8,359.6,45.9,359.7,46.1z"/>
		<path class="st1" d="M352.4,49.3c0.2,0.1,0.3,0.2,0.5,0.2C352.7,49.5,352.6,49.4,352.4,49.3z"/>
		<path class="st1" d="M354.6,50.1c0.1,0,0.2,0,0.3,0.1C354.8,50.2,354.7,50.2,354.6,50.1z"/>
		<path class="st1" d="M355.5,50.3c0.1,0,0.2,0,0.3,0C355.7,50.4,355.6,50.3,355.5,50.3z"/>
		<path class="st1" d="M358.3,50.2c-0.2,0.1-0.5,0.1-0.7,0.2C357.8,50.3,358,50.3,358.3,50.2L358.3,50.2z"/>
		<path class="st1" d="M356.7,50.4c0.3,0,0.6,0,0.8-0.1C357.3,50.4,357,50.4,356.7,50.4z"/>
		<path class="st1" d="M348.6,53.9L348.6,53.9c-0.3-0.2-0.7-0.4-1-0.6C347.9,53.5,348.2,53.7,348.6,53.9z"/>
		<path class="st1" d="M347,52.9c-0.2-0.2-0.5-0.3-0.7-0.5C346.5,52.5,346.7,52.7,347,52.9z"/>
		<path class="st1" d="M350.7,48.3L350.7,48.3c0.4,0.3,0.9,0.6,1.3,0.8C351.6,48.9,351.2,48.6,350.7,48.3z"/>
		<path class="st1" d="M353.4,49.7c0.1,0.1,0.3,0.1,0.4,0.2C353.7,49.8,353.5,49.8,353.4,49.7z"/>
		<path class="st1" d="M345.8,52c-0.4-0.3-0.8-0.6-1.2-1C345,51.4,345.4,51.7,345.8,52z"/>
		<path class="st1" d="M347.8,30C347.9,30,347.9,29.9,347.8,30C347.9,29.9,347.9,30,347.8,30z"/>
		<path class="st1" d="M356.6,32.6c-0.3,0-0.7,0-1,0C355.9,32.5,356.3,32.6,356.6,32.6L356.6,32.6z"/>
		<polygon class="st1" points="341.8,44.8 341.8,44.8 341.8,44.8 		"/>
		<path class="st1" d="M342,46c0,0.1,0,0.1,0,0.2C342,46.1,342,46.1,342,46z"/>
		<path class="st1" d="M341.9,49.5c0,0.1,0,0.2-0.1,0.3C341.8,49.7,341.8,49.6,341.9,49.5z"/>
		<path class="st1" d="M341.5,50.7c0-0.1,0.1-0.1,0.1-0.2C341.5,50.6,341.5,50.7,341.5,50.7z"/>
		<path class="st1" d="M342,48.5c0,0.1,0,0.2,0,0.3C342,48.7,342,48.6,342,48.5z"/>
		<polygon class="st1" points="338.9,34.6 341.6,30.7 338.9,34.6 		"/>
		<path class="st1" d="M340.7,30.1c0.3,0.2,0.6,0.5,0.9,0.7C341.3,30.5,341,30.3,340.7,30.1z"/>
		<path class="st1" d="M332.9,50.4c0.3,0,0.5-0.1,0.7-0.2C333.4,50.3,333.1,50.3,332.9,50.4z"/>
		<path class="st1" d="M322.3,52.9c-0.2-0.2-0.5-0.3-0.7-0.5C321.8,52.5,322.1,52.7,322.3,52.9z"/>
		<path class="st1" d="M323.9,53.9L323.9,53.9c-0.3-0.2-0.7-0.4-1-0.6C323.2,53.5,323.6,53.7,323.9,53.9z"/>
		<polygon class="st1" points="322.4,48 320,51 322.4,48 		"/>
		<path class="st1" d="M321.1,52c-0.4-0.3-0.8-0.6-1.2-1C320.4,51.4,320.7,51.7,321.1,52z"/>
		<path class="st1" d="M326.1,48.3L326.1,48.3c0.4,0.3,0.9,0.6,1.3,0.8C327,48.9,326.5,48.6,326.1,48.3z"/>
		<path class="st1" d="M327.8,49.3c0.2,0.1,0.3,0.2,0.5,0.2C328.1,49.5,327.9,49.4,327.8,49.3z"/>
		<path class="st1" d="M332,50.4c0.3,0,0.6,0,0.8-0.1C332.6,50.4,332.3,50.4,332,50.4z"/>
		<path class="st1" d="M328.7,49.7c0.1,0.1,0.3,0.1,0.4,0.2C329,49.8,328.9,49.8,328.7,49.7z"/>
		<path class="st1" d="M330.9,50.3c0.1,0,0.2,0,0.3,0C331.1,50.4,331,50.3,330.9,50.3z"/>
		<path class="st1" d="M330,50.1c0.1,0,0.2,0,0.3,0.1C330.2,50.2,330.1,50.2,330,50.1z"/>
		<polygon class="st1" points="322.6,30.7 322.6,30.7 322.6,30.7 		"/>
		<path class="st1" d="M331.9,32.6c-0.3,0-0.7,0-1,0C331.3,32.5,331.6,32.6,331.9,32.6L331.9,32.6z"/>
		<path class="st1" d="M323.2,30C323.2,30,323.2,29.9,323.2,30C323.2,29.9,323.2,30,323.2,30z"/>
		<path class="st1" d="M330.9,32.5c-0.2,0-0.4,0-0.5,0l0,0C330.6,32.6,330.8,32.5,330.9,32.5z"/>
		<path class="st1" d="M291.5,33.9c0,0.2,0.1,0.3,0.1,0.5C291.6,34.2,291.6,34,291.5,33.9z"/>
		<path class="st1" d="M291.7,34.8c0,0.2,0.1,0.4,0.1,0.6C291.8,35.3,291.8,35,291.7,34.8z"/>
		<path class="st1" d="M291.5,40.3c-0.1,0.3-0.2,0.5-0.3,0.8C291.3,40.8,291.4,40.5,291.5,40.3z"/>
		<path class="st1" d="M291.9,37c0,0.5,0,1-0.1,1.4C291.9,37.9,291.9,37.5,291.9,37z"/>
		<path class="st1" d="M291.8,38.7c-0.1,0.4-0.1,0.8-0.2,1.2C291.7,39.6,291.7,39.2,291.8,38.7z"/>
		<path class="st1" d="M291.8,35.9c0,0.4,0,0.7,0,1.1C291.9,36.6,291.9,36.2,291.8,35.9z"/>
		<path class="st1" d="M290.5,31.5c0.1,0.1,0.1,0.2,0.2,0.2C290.6,31.7,290.6,31.6,290.5,31.5z"/>
		<path class="st1" d="M290.9,32.2c0.1,0.1,0.1,0.2,0.1,0.3C291,32.4,291,32.3,290.9,32.2z"/>
		<path class="st1" d="M291.3,33c0,0.1,0.1,0.3,0.1,0.4C291.4,33.3,291.3,33.1,291.3,33z"/>
		<path class="st1" d="M290.1,30.9c0,0.1,0.1,0.1,0.1,0.2C290.2,31,290.1,30.9,290.1,30.9z"/>
		<path class="st1" d="M290.3,42.8c-0.1,0.1-0.2,0.3-0.3,0.4C290.1,43.1,290.2,42.9,290.3,42.8z"/>
		<path class="st1" d="M291.1,41.5c-0.1,0.3-0.3,0.6-0.4,0.8C290.8,42.1,290.9,41.8,291.1,41.5z"/>
		<polygon class="st1" points="289.7,50 289.7,50 290.2,50.7 		"/>
		<path class="st1" d="M280.9,41.3c-0.3,0-0.6,0-0.9,0C280.3,41.3,280.6,41.3,280.9,41.3z"/>
		<path class="st1" d="M282.6,41.1c0.2,0,0.4-0.1,0.6-0.2l0,0C283.1,41,282.9,41,282.6,41.1z"/>
		<path class="st1" d="M282.5,41.1c-0.2,0-0.3,0.1-0.5,0.1C282.1,41.2,282.3,41.1,282.5,41.1z"/>
		<path class="st1" d="M281.7,41.2c-0.2,0-0.4,0-0.6,0.1C281.3,41.3,281.5,41.3,281.7,41.2z"/>
		<path class="st1" d="M284.9,34.4L284.9,34.4c-0.1-0.2-0.3-0.4-0.5-0.5C284.5,34,284.7,34.2,284.9,34.4z"/>
		<path class="st1" d="M281,27.7c-0.4,0-0.8,0-1.2,0C280.3,27.7,280.6,27.7,281,27.7z"/>
		<path class="st1" d="M264,52.6C264,52.6,264,52.6,264,52.6C264,52.6,264,52.6,264,52.6z"/>
		<polygon class="st1" points="262.6,53.6 262.6,53.6 262.6,53.6 		"/>
		<polygon class="st1" points="262.3,33.9 264.3,31 262.3,33.9 		"/>
		<path class="st1" d="M263.3,30.2c0.3,0.3,0.7,0.5,1,0.8C264,30.7,263.6,30.5,263.3,30.2z"/>
		<path class="st1" d="M258.1,49.5c-0.2,0.1-0.5,0.2-0.7,0.3C257.6,49.7,257.9,49.6,258.1,49.5L258.1,49.5z"/>
		<path class="st1" d="M256.3,50c0.2,0,0.5-0.1,0.7-0.2C256.7,49.9,256.5,50,256.3,50z"/>
		<path class="st1" d="M255.1,50.2c0.2,0,0.4,0,0.6-0.1C255.4,50.2,255.2,50.2,255.1,50.2z"/>
		<path class="st1" d="M252.5,50.2c0.1,0,0.2,0,0.4,0C252.8,50.2,252.7,50.2,252.5,50.2z"/>
		<path class="st1" d="M251.7,50c0.2,0,0.3,0.1,0.5,0.1C252,50.1,251.9,50.1,251.7,50z"/>
		<polygon class="st1" points="246.2,53.9 246.2,53.9 246.2,53.9 		"/>
		<path class="st1" d="M243.5,51.9c-0.3-0.3-0.6-0.6-0.9-1C242.9,51.2,243.2,51.5,243.5,51.9z"/>
		<path class="st1" d="M242.3,50.5c-0.2-0.2-0.3-0.4-0.5-0.6C242,50.1,242.1,50.3,242.3,50.5z"/>
		<path class="st1" d="M244.9,53C244.8,53,244.8,53,244.9,53C244.8,53,244.8,53,244.9,53z"/>
		<path class="st1" d="M250.9,49.8c0.2,0.1,0.3,0.1,0.5,0.2C251.3,49.9,251.1,49.9,250.9,49.8z"/>
		<path class="st1" d="M241.5,49.4c-0.1-0.2-0.2-0.4-0.3-0.6C241.3,49,241.4,49.2,241.5,49.4z"/>
		<path class="st1" d="M240.8,48.2c-0.1-0.2-0.2-0.3-0.2-0.5C240.7,47.9,240.8,48,240.8,48.2z"/>
		<path class="st1" d="M240.3,47c0-0.1-0.1-0.2-0.1-0.4C240.2,46.8,240.3,46.9,240.3,47z"/>
		<path class="st1" d="M248.4,48.2L248.4,48.2c0.2,0.2,0.4,0.3,0.6,0.5C248.8,48.5,248.6,48.4,248.4,48.2z"/>
		<path class="st1" d="M249,48.7c0.2,0.1,0.4,0.3,0.6,0.4C249.4,49,249.2,48.8,249,48.7z"/>
		<path class="st1" d="M250.2,49.5c0.2,0.1,0.4,0.2,0.6,0.3C250.6,49.7,250.4,49.6,250.2,49.5z"/>
		<path class="st1" d="M249.6,49.1c0.2,0.1,0.4,0.2,0.6,0.3C250,49.4,249.8,49.2,249.6,49.1z"/>
		<path class="st1" d="M253.1,32.9c0.4,0,0.7-0.1,1.1-0.1C253.8,32.8,253.4,32.9,253.1,32.9z"/>
		<path class="st1" d="M254.6,32.8c-0.2,0-0.3,0-0.5,0C254.3,32.8,254.5,32.8,254.6,32.8L254.6,32.8z"/>
		<path class="st1" d="M253.9,27.1c0.3,0,0.5,0,0.8,0h0C254.4,27.1,254.1,27.1,253.9,27.1z"/>
		<path class="st1" d="M210.7,35.2c0,0.1,0,0.2,0,0.3C210.8,35.4,210.8,35.3,210.7,35.2z"/>
		<path class="st1" d="M210.5,40.1C210.5,40.1,210.5,40.1,210.5,40.1C210.5,40.1,210.5,40.1,210.5,40.1z"/>
		<path class="st1" d="M210.1,32.5C210.1,32.5,210.1,32.5,210.1,32.5C210.1,32.5,210.1,32.5,210.1,32.5z"/>
		<path class="st1" d="M210.5,33.8C210.5,33.9,210.5,33.9,210.5,33.8C210.5,33.9,210.5,33.9,210.5,33.8z"/>
		<path class="st1" d="M210.8,38.6c0,0.1,0,0.1,0,0.2C210.8,38.7,210.8,38.7,210.8,38.6z"/>
		<path class="st1" d="M203.8,34.4L203.8,34.4c-0.1-0.2-0.3-0.4-0.5-0.5C203.5,34,203.7,34.2,203.8,34.4z"/>
		<path class="st1" d="M200,27.7c-0.4,0-0.8,0-1.2,0C199.2,27.7,199.6,27.7,200,27.7z"/>
		<path class="st1" d="M201.5,41.1c-0.2,0-0.3,0.1-0.5,0.1C201.1,41.2,201.3,41.1,201.5,41.1z"/>
		<path class="st1" d="M200.7,41.2c-0.2,0-0.4,0-0.6,0.1C200.3,41.3,200.5,41.3,200.7,41.2z"/>
		<path class="st1" d="M199.9,41.3c-0.3,0-0.6,0-0.9,0C199.3,41.3,199.6,41.3,199.9,41.3z"/>
		<path class="st1" d="M202.2,40.9c-0.2,0.1-0.4,0.1-0.6,0.2C201.8,41,202,41,202.2,40.9z"/>
		<polygon class="st1" points="151.8,53.6 148.8,46.8 151.8,53.6 		"/>
		<polygon class="st1" points="126,47.6 127.4,44.3 126,47.6 		"/>
		<polygon class="st1" points="145.1,53.6 145.1,53.6 143.4,49.6 		"/>
		<polygon class="st1" points="117.5,53.6 117.5,53.6 117.5,53.6 		"/>
		<path class="st1" d="M118,53.2c0.2-0.2,0.4-0.4,0.7-0.6C118.4,52.8,118.2,53,118,53.2z"/>
		<polygon class="st1" points="103,53.9 103,53.9 103,53.9 		"/>
		<path class="st1" d="M99.8,50.5c-0.1-0.1-0.2-0.3-0.2-0.4C99.7,50.3,99.8,50.4,99.8,50.5z"/>
		<path class="st1" d="M100.5,51.5c-0.1-0.2-0.3-0.3-0.4-0.5C100.2,51.2,100.4,51.3,100.5,51.5z"/>
		<path class="st1" d="M102.2,53.3c-0.3-0.2-0.5-0.4-0.8-0.7C101.7,52.9,102,53.1,102.2,53.3z"/>
		<path class="st1" d="M101.5,52.6c-0.3-0.2-0.5-0.5-0.7-0.8C101,52.1,101.2,52.4,101.5,52.6z"/>
		<path class="st1" d="M112.3,49.9c-0.3,0.1-0.7,0.3-1.1,0.3C111.6,50.2,112,50,112.3,49.9z"/>
		<path class="st1" d="M111.2,50.2c-0.4,0.1-0.8,0.1-1.2,0.1C110.5,50.3,110.9,50.3,111.2,50.2z"/>
		<path class="st1" d="M99.3,49.5c0-0.1-0.1-0.2-0.1-0.3C99.2,49.3,99.3,49.4,99.3,49.5z"/>
		<polygon class="st1" points="98.2,45.4 98.2,45.4 98.2,45.4 		"/>
		<path class="st1" d="M94.6,49.1c0-0.1,0-0.2,0-0.3C94.7,48.9,94.7,49,94.6,49.1z"/>
		<path class="st1" d="M94.7,48.3c0-0.3,0-0.5,0-0.8C94.8,47.8,94.8,48.1,94.7,48.3z"/>
		<polygon class="st1" points="94.3,50.4 94.3,50.4 94.3,50.4 		"/>
		<path class="st1" d="M94.5,49.8c0,0,0-0.1,0-0.1C94.5,49.7,94.5,49.7,94.5,49.8z"/>
		<polygon class="st1" points="91.1,40.7 91.1,40.7 91.1,40.7 		"/>
		<path class="st1" d="M91.7,41.1c0.3,0.2,0.6,0.5,0.9,0.7C92.3,41.5,92,41.3,91.7,41.1z"/>
		<path class="st1" d="M92.6,29.6c0.1,0,0.2,0.1,0.2,0.1C92.8,29.7,92.7,29.6,92.6,29.6z"/>
		<path class="st1" d="M91.1,35.3C91.1,35.3,91.1,35.3,91.1,35.3L91.1,35.3C91.1,35.3,91.1,35.3,91.1,35.3z"/>
		<path class="st1" d="M83.6,50.3c0.1,0,0.2,0,0.3,0C83.7,50.4,83.6,50.3,83.6,50.3z"/>
		<path class="st1" d="M76.6,53.9L76.6,53.9c-0.3-0.2-0.7-0.4-1-0.6C75.9,53.5,76.2,53.7,76.6,53.9z"/>
		<path class="st1" d="M84.7,50.4c0.3,0,0.6,0,0.8-0.1C85.3,50.4,85,50.4,84.7,50.4z"/>
		<path class="st1" d="M85.6,50.4c0.3,0,0.5-0.1,0.7-0.2C86.1,50.3,85.8,50.3,85.6,50.4z"/>
		<path class="st1" d="M78.8,48.3c0.4,0.3,0.9,0.6,1.3,0.8C79.6,48.9,79.2,48.6,78.8,48.3z"/>
		<path class="st1" d="M75,52.9c-0.2-0.2-0.5-0.3-0.7-0.5C74.5,52.5,74.7,52.7,75,52.9z"/>
		<path class="st1" d="M81.4,49.7c0.1,0.1,0.3,0.1,0.4,0.2C81.7,49.8,81.5,49.8,81.4,49.7z"/>
		<path class="st1" d="M80.4,49.3c0.2,0.1,0.3,0.2,0.5,0.2C80.8,49.5,80.6,49.4,80.4,49.3z"/>
		<path class="st1" d="M82.6,50.1c0.1,0,0.2,0,0.3,0.1C82.8,50.2,82.7,50.2,82.6,50.1z"/>
		<path class="st1" d="M73.8,52c-0.4-0.3-0.8-0.6-1.2-1C73,51.4,73.4,51.7,73.8,52z"/>
		<path class="st1" d="M87.8,46.1L87.8,46.1c-0.1-0.1-0.3-0.3-0.4-0.4C87.5,45.8,87.6,45.9,87.8,46.1z"/>
		<path class="st1" d="M84.6,32.6c-0.3,0-0.7,0-1,0C83.9,32.5,84.3,32.6,84.6,32.6L84.6,32.6z"/>
		<polygon class="st1" points="75.2,30.7 75.2,30.7 75.2,30.7 		"/>
		<path class="st1" d="M75.9,30C75.9,30,75.9,29.9,75.9,30C75.9,29.9,75.9,30,75.9,30z"/>
		<path class="st1" d="M83.6,32.5c-0.2,0-0.4,0-0.5,0l0,0C83.3,32.6,83.4,32.5,83.6,32.5z"/>
		<polygon class="st1" points="56.2,36.9 59.8,27.7 56.2,36.9 		"/>
	</g>
	<g>
		<polygon class="st2" points="45.5,44.1 42.1,35.7 39,43.5 32.7,27.7 32.2,27.7 42.1,52.4 		"/>
		<g>
			<path class="st2" d="M66.8,33.4c0,2.6,0.8,4.6,2.3,5.8c0.1,0.1,0.2,0.1,0.3,0.2V27.7h-0.3C67.6,29.1,66.8,31,66.8,33.4z"/>
			<path class="st2" d="M69.4,44.5C69.4,44.5,69.4,44.5,69.4,44.5L65.6,49c1.2,1.1,2.4,2,3.7,2.7V44.5z"/>
		</g>
		<path class="st2" d="M377.5,30.2c-2.2,2.6-3.3,5.7-3.3,9.3c0,3.6,1.1,6.7,3.3,9.3V30.2z"/>
		<path class="st2" d="M407.1,50.8c2.2-2.6,3.3-5.7,3.3-9.3c0-3.6-1.1-6.7-3.3-9.3V50.8z"/>
		<polygon class="st2" points="426.6,36.5 426.6,43.7 414.5,27.7 414.1,27.7 414.1,37.2 420.3,45.3 420.3,38.1 432.1,53.6 
			432.8,53.6 432.8,44.7 		"/>
		<g>
			<path class="st2" d="M385.4,31.2c0,0-0.1,0.1-0.1,0.1c1.1-0.5,2.3-0.8,3.5-0.8c2.1,0,3.9,0.7,5.4,2.2c0.5-0.1,1-0.2,1.6-0.2
				c2.3,0,4.3,0.9,5.9,2.6c0.7,0.8,1.2,1.6,1.6,2.5c-0.4-3.3-1.7-6.1-4.1-8.4c-0.9-0.8-1.8-1.5-2.7-2.1c-0.2,0-0.4,0-0.7,0
				C391.7,27.1,388.2,28.5,385.4,31.2z"/>
			<path class="st2" d="M399.3,49.7c-1,0.5-2.2,0.8-3.5,0.8c-2.1,0-3.9-0.7-5.4-2.1c-0.5,0.1-1,0.1-1.6,0.1c-2.3,0-4.3-0.9-5.9-2.6
				c-0.7-0.8-1.3-1.7-1.7-2.6c0.4,3.3,1.7,6.2,4.1,8.5c0.9,0.8,1.8,1.5,2.7,2.1c0.2,0,0.4,0,0.7,0C392.9,53.9,396.4,52.5,399.3,49.7
				C399.2,49.7,399.3,49.7,399.3,49.7z"/>
		</g>
		<g>
			<path class="st2" d="M364.3,41.6v11.7c1.7-1.5,2.5-3.4,2.5-5.8c0-2.5-0.7-4.4-2.2-5.7C364.5,41.7,364.4,41.7,364.3,41.6z"/>
			<path class="st2" d="M364.3,29.4v4.2l2-2.8C365.6,30.2,365,29.8,364.3,29.4z"/>
		</g>
		<g>
			<path class="st2" d="M351.4,36.9c-2.6-0.7-4.3-1.2-5.1-1.7c-0.2-0.1-0.4-0.3-0.5-0.4c0,0.2,0,0.4,0,0.6c0,2.6,0.8,4.6,2.3,5.8
				s3.9,2.2,7.1,3c2,0.5,3.4,1,4.1,1.5c0.2,0.1,0.3,0.2,0.4,0.4c0-0.2,0-0.4,0-0.6c0-2.5-0.7-4.4-2.2-5.7
				C356.1,38.5,354.1,37.5,351.4,36.9z"/>
			<path class="st2" d="M358.3,50.2c-0.5,0.1-1,0.2-1.6,0.2c-1.9,0-3.8-0.7-5.9-2.1c-0.3,0.1-0.7,0.1-1.1,0.1
				c-0.8,0-1.7-0.2-2.6-0.4l-2.5,3c1.3,1.2,2.6,2.1,3.9,2.9c0.3,0,0.7,0,1,0c3.1,0,5.5-0.8,7.4-2.3
				C357.5,51.2,357.9,50.7,358.3,50.2z"/>
			<path class="st2" d="M347.2,30.7c0.4-0.1,0.9-0.2,1.4-0.2c2.2,0,4.4,0.7,6.5,2c0.2,0,0.3,0,0.5,0c0.3,0,0.7,0,1,0l2.7-3.8
				c-0.7-0.6-1.5-1.2-2.4-1.6c-0.4,0-0.7,0-1.1,0c-2.8,0-5.2,0.7-7.1,2.2C348.1,29.7,347.6,30.2,347.2,30.7z"/>
		</g>
		<g>
			<path class="st2" d="M337.6,49c1.1,1,2.2,1.9,3.4,2.6c0.7-1.2,1.1-2.5,1.1-4.1c0-1-0.1-1.9-0.3-2.7c-0.1-0.1-0.3-0.2-0.4-0.4
				L337.6,49z"/>
			<path class="st2" d="M338.8,33.4c0,0.5,0,0.9,0.1,1.3l2.7-3.9c-0.6-0.5-1.2-0.9-1.8-1.3C339.1,30.6,338.8,31.9,338.8,33.4z"/>
		</g>
		<g>
			<path class="st2" d="M333.6,50.2c-0.5,0.1-1,0.2-1.6,0.2c-1.9,0-3.8-0.7-5.9-2.1c-0.3,0.1-0.7,0.1-1.1,0.1
				c-0.8,0-1.7-0.2-2.6-0.4l-2.5,3c1.3,1.2,2.6,2.1,3.9,2.9c0.3,0,0.7,0,1,0c3.1,0,5.5-0.8,7.4-2.3
				C332.8,51.2,333.2,50.7,333.6,50.2z"/>
			<path class="st2" d="M322.6,30.7c0.4-0.1,0.9-0.2,1.4-0.2c2.2,0,4.4,0.7,6.5,2c0.2,0,0.3,0,0.5,0c0.3,0,0.7,0,1,0l2.7-3.8
				c-0.7-0.6-1.5-1.2-2.4-1.6c-0.4,0-0.7,0-1.1,0c-2.8,0-5.2,0.7-7.1,2.2C323.4,29.7,323,30.2,322.6,30.7z"/>
			<path class="st2" d="M326.8,36.9c-2.6-0.7-4.3-1.2-5.1-1.7c-0.2-0.1-0.4-0.3-0.5-0.4c0,0.2,0,0.4,0,0.6c0,2.6,0.8,4.6,2.3,5.8
				c1.5,1.2,3.9,2.2,7.1,3c2,0.5,3.4,1,4.1,1.5c0.2,0.1,0.3,0.2,0.4,0.4c0-0.2,0-0.4,0-0.6c0-2.5-0.7-4.4-2.2-5.7
				C331.5,38.5,329.4,37.5,326.8,36.9z"/>
		</g>
		<g>
			<path class="st2" d="M317.2,52v-1.9h-3C315.2,50.9,316.2,51.5,317.2,52z"/>
			<path class="st2" d="M314.2,33.3h2.6v-5.5h-0.3C315,29.1,314.2,30.9,314.2,33.3z"/>
		</g>
		<g>
			<polygon class="st2" points="308.4,39 302.9,39 302.9,37 296.7,37 296.7,42.3 308.4,42.3 			"/>
			<rect x="296.7" y="27.7" class="st2" width="13.1" height="3.5"/>
			<polygon class="st2" points="310.2,50.1 302.9,50.1 302.9,48.1 296.7,48.1 296.7,53.6 310.2,53.6 			"/>
		</g>
		<g>
			<path class="st2" d="M289.7,43.6c1.5-1.6,2.2-3.8,2.2-6.7c0-2.9-0.7-5.1-2.2-6.6V43.6z"/>
			<polygon class="st2" points="289.7,50 289.7,53.6 292.2,53.6 			"/>
		</g>
		<g>
			<path class="st2" d="M279.6,43.6c1.6-0.6,2.8-1.5,3.7-2.7c-0.8,0.3-1.9,0.4-3.2,0.4h-4.5v-2.2c-0.7,0.1-1.5,0.2-2.5,0.2h-3.8v5.4
				h3.5l2.7,3.9v-1.9h4.3l4.8,6.9h2.1L279.6,43.6z"/>
			<path class="st2" d="M269.3,31.1h3.9c2,0,3.4,0.3,4.2,0.8c0.4,0.3,0.7,0.7,0.9,1.2h1.9c2,0,3.4,0.3,4.2,0.8
				c0.2,0.1,0.4,0.3,0.5,0.5c-0.1-2.9-1-5.1-2.8-6.5c-0.1,0-0.1-0.1-0.2-0.1c-0.7,0-1.4-0.1-2.1-0.1h-10.6V31.1z"/>
		</g>
		<g>
			<path class="st2" d="M262.3,53.6h0.3c1-0.6,1.9-1.4,2.7-2.3v-9.9h-3.1V53.6z"/>
			<path class="st2" d="M262.3,29.5v4.4l2-2.9C263.6,30.5,263,30,262.3,29.5z"/>
		</g>
		<g>
			<path class="st2" d="M253.7,50.3c-2,0-3.8-0.7-5.3-2.1c-0.5,0.1-1.1,0.1-1.7,0.1c-2.2,0-4-0.8-5.6-2.4c-0.7-0.7-1.3-1.6-1.7-2.5
				c0.4,3.3,1.7,6.2,4.1,8.5c0.8,0.8,1.7,1.5,2.7,2c0.2,0,0.4,0,0.7,0c4.8,0,8.5-1.5,11.3-4.4C256.8,50,255.4,50.3,253.7,50.3z"/>
			<path class="st2" d="M243,31.9c1.2-0.7,2.6-1.1,4.2-1.1c1.2,0,2.4,0.2,3.4,0.6c0.8,0.3,1.6,0.8,2.5,1.5c0.4,0,0.7-0.1,1.1-0.1
				c0.2,0,0.3,0,0.5,0l2.6-3.8c-0.8-0.8-1.7-1.4-2.7-1.9c-0.3,0-0.5,0-0.8,0c-4,0-7.4,1.4-10.3,4.1C243.4,31.4,243.2,31.7,243,31.9z
				"/>
		</g>
		<g>
			<path class="st2" d="M237,50.3v-0.2h-0.2C236.9,50.2,236.9,50.2,237,50.3z"/>
			<path class="st2" d="M235.2,39h-2.8c0,0.2,0,0.4,0,0.6c0,1.7,0.2,3.3,0.7,4.7h2.1V39z"/>
			<path class="st2" d="M233.7,33.3h2.8v-4C235.3,30.5,234.4,31.8,233.7,33.3z"/>
		</g>
		<g>
			<polygon class="st2" points="230,50.1 222.7,50.1 222.7,48.1 216.5,48.1 216.5,53.6 230,53.6 			"/>
			<polygon class="st2" points="228.2,39 222.7,39 222.7,37 216.5,37 216.5,42.3 228.2,42.3 			"/>
			<rect x="216.5" y="27.7" class="st2" width="13.1" height="3.5"/>
		</g>
		<g>
			<path class="st2" d="M209.5,31.4v11.2c0.9-1.5,1.4-3.3,1.4-5.6C210.9,34.7,210.4,32.8,209.5,31.4z"/>
			<polygon class="st2" points="209.5,51.1 209.5,53.6 211.2,53.6 			"/>
		</g>
		<g>
			<path class="st2" d="M188.2,31.1h3.9c2,0,3.4,0.3,4.2,0.8c0.4,0.3,0.7,0.7,0.9,1.2h1.9c2,0,3.4,0.3,4.2,0.8
				c0.2,0.1,0.4,0.3,0.5,0.5c-0.1-2.9-1-5.1-2.8-6.5c-0.1,0-0.1-0.1-0.2-0.1c-0.7,0-1.4-0.1-2.1-0.1h-10.6V31.1z"/>
			<path class="st2" d="M198.6,43.6c1.6-0.6,2.8-1.5,3.7-2.7c-0.8,0.3-1.9,0.4-3.2,0.4h-4.5v-2.2c-0.7,0.1-1.5,0.2-2.5,0.2h-3.8v5.4
				h3.5l2.7,3.9v-1.9h4.3l4.8,6.9h2L198.6,43.6z"/>
		</g>
		<polygon class="st2" points="166.2,50.1 161.3,50.1 161.3,48.1 155.1,48.1 155.1,53.6 166.2,53.6 		"/>
		<polygon class="st2" points="148.1,45 148.1,53.6 151.8,53.6 		"/>
		<path class="st2" d="M131.2,35.5l2.8,6.6h-5.7l-2.4,5.5h10.4l0.9,2h6.1l1.7,4h0.5l-11.1-25.8L131.2,35.5z M134.1,44.1l3.5-8.1
			l3.5,8.1H134.1z"/>
		<path class="st2" d="M115.5,53.6h2c0.4-0.3,0.8-0.6,1.2-1c2.2-2.2,3.4-5.3,3.4-9.3v-4.7L115.5,53.6z"/>
		<path class="st2" d="M112.3,49.9c-0.7,0.3-1.4,0.4-2.3,0.4c-1.8,0-3.2-0.6-4.2-1.9c-0.1-0.2-0.3-0.4-0.4-0.6
			c-0.7,0.3-1.5,0.5-2.4,0.5c-1.8,0-3.2-0.6-4.2-1.9c-0.3-0.3-0.5-0.7-0.7-1c0.3,3,1.4,5.4,3.2,7.2c0.5,0.5,1,0.9,1.6,1.3
			c0,0,0,0,0,0c3.5,0,6.3-1.1,8.6-3.3C111.9,50.4,112.1,50.1,112.3,49.9z"/>
		<g>
			<path class="st2" d="M94.8,47.5c0-2.5-0.7-4.4-2.2-5.7c-0.4-0.4-0.9-0.7-1.5-1.1v0.6c0,3.9,1.1,6.9,3.2,9.1
				C94.6,49.5,94.8,48.6,94.8,47.5z"/>
			<path class="st2" d="M91.1,28.7v6.5c0,0,0,0,0,0l3.2-4.5C93.3,30,92.3,29.3,91.1,28.7z"/>
		</g>
		<g>
			<path class="st2" d="M86.3,50.2c-0.5,0.1-1,0.2-1.6,0.2c-1.9,0-3.8-0.7-5.9-2.1c-0.3,0.1-0.7,0.1-1.1,0.1c-0.8,0-1.7-0.2-2.6-0.4
				l-2.5,3c1.3,1.2,2.6,2.1,3.9,2.9c0.3,0,0.7,0,1,0c3.1,0,5.5-0.8,7.4-2.3C85.5,51.2,85.9,50.7,86.3,50.2z"/>
			<path class="st2" d="M79.4,36.9c-2.6-0.7-4.3-1.2-5.1-1.7c-0.2-0.1-0.4-0.3-0.5-0.4c0,0.2,0,0.4,0,0.6c0,2.6,0.8,4.6,2.3,5.8
				c1.5,1.2,3.9,2.2,7.1,3c2,0.5,3.4,1,4.1,1.5c0.2,0.1,0.3,0.2,0.4,0.4c0-0.2,0-0.4,0-0.6c0-2.5-0.7-4.4-2.2-5.7
				C84.1,38.5,82.1,37.5,79.4,36.9z"/>
			<path class="st2" d="M75.2,30.7c0.4-0.1,0.9-0.2,1.4-0.2c2.2,0,4.4,0.7,6.5,2c0.2,0,0.3,0,0.5,0c0.3,0,0.7,0,1,0l2.7-3.8
				c-0.7-0.6-1.5-1.2-2.4-1.6c-0.4,0-0.7,0-1.1,0c-2.8,0-5.2,0.7-7.1,2.2C76.1,29.7,75.6,30.2,75.2,30.7z"/>
		</g>
		<polygon class="st2" points="56.2,36.9 59.8,27.7 56.2,27.7 		"/>
	</g>
</g>
</svg>
